<?xml version="1.0" encoding="utf-8"?>
<!-- Generator: Adobe Illustrator 24.0.0, SVG Export Plug-In . SVG Version: 6.00 Build 0)  -->
<svg version="1.1" id="Layer_1" xmlns="http://www.w3.org/2000/svg" xmlns:xlink="http://www.w3.org/1999/xlink" x="0px" y="0px"
	 viewBox="0 0 155.6 80.9" style="enable-background:new 0 0 155.6 80.9;" xml:space="preserve">
<style type="text/css">
	.st0{fill:none;stroke:#111212;}
	.st1{fill:none;stroke:#111212;stroke-width:0.5;}
	.st2{fill:none;stroke:#111212;stroke-width:0.5;stroke-dasharray:1.038,1.038;}
	.st3{fill:none;stroke:#111212;stroke-width:0.5;stroke-dasharray:1,1;}
</style>
<title>icons/main/delivery 6</title>
<desc>Created with Sketch.</desc>
<g id="icons_x2F_main_x2F_delivery-6">
	<g id="Group-25" transform="translate(0.000000, 19.000000)">
		<path id="Stroke-1" class="st0" d="M28.2-9l4.8-1l4.7-3.5c0.3-0.2,0.7-0.4,1.1-0.5l3.3-0.6c1.2-0.2,2.3,0.4,2.8,1.6l0.1,0.3
			c0.3,0.7,0.2,1.4-0.1,2.1L44.1-9c-0.6,1.2-2.1,1.7-3.4,1.1l-0.6-0.3c-0.9-0.4-2-0.3-2.7,0.3l0,0c-1,0.8-1.2,2.3-0.5,3.4
			c0.6,0.8,1.6,1.3,2.6,1c1-0.2,2.2-0.6,3-0.9C44-5,46.9-3.6,46.9-3.6l0.5,1.9L55.1,0c0.5,0.1,0.9,0.3,1.3,0.7
			c0.4,0.4,0.9,0.9,1.3,1.3c0.5,0.6,1.3,0.8,2.1,0.7l2.1-0.2c2-0.2,3.4,1.8,2.6,3.6l-0.5,1.1l5.1-2.3c0.4-0.2,0.8-0.5,1.1-0.9
			l1.8-2.7c0,0,0.6-0.2,1-0.2l1.5-3.1l1.6-1l4.5-1.6l5.3,0.9l1.8-0.9c0.7,0.4,1.3,0.5,1.3,0.5l1.7,3.5c1,2,3.3,2.9,5.4,2.2l2.8-1.1
			c1.7-0.6,3.6-0.2,4.8,1.2c1.6,1.9,4.5,2,6.3,0.2l1-1c0.6-0.6,1.3-1,2-1.2l1.6-0.4l1.5-1.6l6.8-1.9c1.8-0.5,3-2,3.2-3.8l0.1-1.2
			c0.1-0.9,0.4-1.7,0.9-2.4l0.5-0.7c0.1-0.2,0.3-0.3,0.5-0.5l3-0.9"/>
		<path id="Stroke-3" class="st0" d="M142.4-11.5l3.1,1.8c0.5,0.5,0.7,1.2,0.6,1.9l-0.3,2.1c-0.1,0.5,0,1,0.3,1.5l1.5,2.6
			c0.4,0.7,0.4,1.5,0.1,2.1l-0.9,1.8c-0.2,0.5-0.3,1-0.2,1.6l3.1,12c0.1,0.5,0.4,1,0.9,1.3l3.6,2.6c1.1,0.8,1.3,2.4,0.3,3.4
			l-2.5,2.7c-0.5,0.5-1.2,0.8-1.8,0.7l-3.6-0.3c-0.6-0.1-1.2-0.4-1.6-0.8l-5.7-7c-0.4-0.5-0.6-1.2-0.5-1.8l1-5.5
			c0.2-1.1-0.4-2.1-1.4-2.5l0,0c-1.3-0.5-2.7,0.2-3,1.5l-4,15.2c-0.1,0.4-0.3,0.8-0.6,1.1l-5.2,4.9c-0.4,0.4-0.6,0.9-0.7,1.4
			l-0.1,0.7c-0.1,0.9,0.3,1.7,1.1,2.1l3.7,2.3c0.5,0.3,0.9,0.9,1,1.5l1.1,6c0.1,0.3,0.2,0.7,0.4,0.9l3.2,4.2
			c0.4,0.5,0.5,1.2,0.4,1.8l-1,5c-0.1,0.6-0.4,1.1-0.9,1.4l-3.2,2.4c-0.8,0.6-2,0.6-2.8-0.1l-2.4-2c-0.6-0.5-0.9-1.3-0.8-2.1
			l0.1-0.6c0.1-0.7-0.1-1.4-0.5-1.9L118,47c-0.3-0.4-0.8-0.7-1.3-0.7l-2.8-0.5c-1-0.2-2,0.3-2.4,1.2l-4.1,8c-0.5,1.1-1.8,1.5-2.9,1
			l-7.4-3.3c-0.3-0.1-0.7-0.2-1-0.2l-7.2,0.3c-0.8,0-1.5-0.3-1.9-0.9l-2.4-3.2c-0.7-0.9-1.9-1.2-2.9-0.6l-2.1,1.2
			c-0.6,0.3-1,0.9-1.1,1.6l-0.2,1.2c-0.2,0.9-0.8,1.5-1.6,1.8l-4.7,1.3c-0.8,0.2-1.6,0-2.2-0.6l-5.6-5.4c-0.4-0.4-1-0.7-1.6-0.6
			l-1.8,0.1c-0.6,0-1.3-0.2-1.7-0.7l-9.1-9.6c-0.3-0.3-0.5-0.7-0.6-1.1L49,35.7c-0.1-0.5-0.3-0.9-0.7-1.3l-1-0.9
			c-0.3-0.3-0.6-0.4-1-0.5l-9.9-2.3c-0.5-0.1-1.1-0.1-1.6,0.2L32,32.4c-0.8,0.4-1.7,0.3-2.4-0.2l-2.5-1.8c-0.3-0.2-0.6-0.5-0.7-0.9
			L24.7,26c-0.2-0.5-0.6-0.9-1.1-1.1l-5-2.3c-0.6-0.3-1.3-0.3-1.9,0c-1.5,0.7-4.2,2.2-5,3.9c-1.5,3.6-3.6,10.8-3.6,10.8l-2,0.5
			l-1.8-2.4c-0.2-0.2-0.3-0.4-0.3-0.7L0.6,23.9c-0.1-0.4-0.1-0.8,0-1.2l0.8-3.2c0.3-1.3,1.6-2,2.9-1.6L4.8,18
			c0.6,0.2,1.2,0.1,1.8-0.2l2.6-1.5c0.9-0.5,1.4-1.6,1.1-2.7L8.8,9l1.4-1.3l0.9-7.3c0.1-0.6,0.4-1.1,0.8-1.5l4.4-2.4"/>
		<path id="Stroke-5" class="st1" d="M53.1,17.8c0,3.2-5.7,11.1-5.7,11.1s-5.7-8-5.7-11.1c0-3.2,2.6-5.7,5.7-5.7
			C50.5,12.1,53.1,14.7,53.1,17.8z"/>
		<path id="Stroke-7" class="st2" d="M49,15.8c1.2,0.9,1.4,2.6,0.5,3.7c-0.9,1.2-2.6,1.4-3.7,0.5c-1.2-0.9-1.4-2.6-0.5-3.7
			C46.1,15.1,47.8,14.9,49,15.8z"/>
		<path id="Stroke-9" class="st1" d="M28.5-7.2c0,3.7-6.7,12.9-6.7,12.9s-6.7-9.2-6.6-12.9c0-3.7,3-6.7,6.7-6.6
			C25.5-13.8,28.5-10.8,28.5-7.2z"/>
		<path id="Stroke-11" class="st3" d="M23.7-9.6c1.3,1,1.6,3,0.5,4.3c-1,1.3-3,1.6-4.3,0.5s-1.6-3-0.5-4.3
			C20.4-10.4,22.4-10.6,23.7-9.6z"/>
		<path id="Stroke-13" class="st1" d="M142.6-12.8c0,3.3-6,11.6-6,11.6s-6-8.3-6-11.6c0-3.3,2.7-6,6-6
			C140-18.7,142.6-16.1,142.6-12.8z"/>
		<path id="Stroke-15" class="st3" d="M138.4-14.9c1.2,0.9,1.4,2.7,0.5,3.9c-0.9,1.2-2.7,1.4-3.9,0.5c-1.2-0.9-1.4-2.7-0.5-3.9
			C135.4-15.7,137.2-15.9,138.4-14.9z"/>
		<path id="Stroke-17" class="st1" d="M117.2,27.4c0,3.8-6.9,13.4-6.9,13.4s-6.9-9.6-6.9-13.4c0-3.8,3.1-6.9,6.9-6.9
			C114.1,20.5,117.2,23.6,117.2,27.4z"/>
		<path id="Stroke-19" class="st3" d="M112.2,24.9c1.4,1.1,1.6,3.1,0.6,4.5c-1.1,1.4-3.1,1.6-4.5,0.6c-1.4-1.1-1.6-3.1-0.6-4.5
			C108.8,24.1,110.9,23.9,112.2,24.9z"/>
		<path id="Stroke-21" class="st1" d="M88.5,17C86.4,21.8,82,27.9,82,27.9s-7.5-10.5-7.5-14.7c0-4.2,3.4-7.5,7.6-7.5
			c4.2,0,7.5,3.4,7.5,7.6C89.5,14.2,89.1,15.5,88.5,17"/>
		<path id="Stroke-23" class="st3" d="M84.1,10.5c1.5,1.2,1.8,3.4,0.6,4.9s-3.4,1.8-4.9,0.6c-1.5-1.2-1.8-3.4-0.6-4.9
			C80.4,9.6,82.6,9.3,84.1,10.5z"/>
	</g>
</g>
</svg>
