<?xml version="1.0" encoding="utf-8"?>
<!-- Generator: Adobe Illustrator 24.0.0, SVG Export Plug-In . SVG Version: 6.00 Build 0)  -->
<svg version="1.1" id="Layer_1" xmlns="http://www.w3.org/2000/svg" xmlns:xlink="http://www.w3.org/1999/xlink" x="0px" y="0px"
	 viewBox="0 0 94.9 86.6" style="enable-background:new 0 0 94.9 86.6;" xml:space="preserve">
<style type="text/css">
	.st0{fill:none;stroke:#111212;stroke-width:0.5;}
	.st1{filter:url(#Adobe_OpacityMaskFilter);}
	.st2{fill-rule:evenodd;clip-rule:evenodd;fill:#FFFFFF;}
	.st3{mask:url(#mask-2_1_);fill:none;stroke:#111212;stroke-width:0.5;}
	.st4{filter:url(#Adobe_OpacityMaskFilter_1_);}
	.st5{mask:url(#mask-2_2_);fill:none;stroke:#111212;stroke-width:0.5;}
	.st6{filter:url(#Adobe_OpacityMaskFilter_2_);}
	.st7{mask:url(#mask-2_3_);fill:none;stroke:#111212;}
	.st8{filter:url(#Adobe_OpacityMaskFilter_3_);}
	.st9{mask:url(#mask-2_4_);fill:none;stroke:#111212;}
	.st10{filter:url(#Adobe_OpacityMaskFilter_4_);}
	.st11{mask:url(#mask-2_5_);fill:none;stroke:#111212;}
	.st12{filter:url(#Adobe_OpacityMaskFilter_5_);}
	.st13{mask:url(#mask-2_6_);fill:none;stroke:#111212;}
	.st14{filter:url(#Adobe_OpacityMaskFilter_6_);}
	.st15{mask:url(#mask-2_7_);fill:none;stroke:#111212;}
	.st16{fill:#111212;}
	.st17{font-family:'MyriadPro-Regular';}
	.st18{font-size:7.1484px;}
	.st19{fill:none;stroke:#111212;}
	.st20{fill:none;stroke:#111212;stroke-width:0.5;stroke-dasharray:1,1.5;}
	.st21{filter:url(#Adobe_OpacityMaskFilter_7_);}
	.st22{mask:url(#mask-4_1_);fill:none;stroke:#111212;stroke-width:0.5;}
</style>
<title>icons/main/delivery 5</title>
<desc>Created with Sketch.</desc>
<g id="icons_x2F_main_x2F_delivery-5">
	<g id="Group-35" transform="translate(0.000000, 11.000000)">
		<g id="Group-11" transform="translate(0.000000, 0.603500)">
			<path id="Stroke-1" class="st0" d="M61.3-8.2c-1-2.3-3.7-3.4-6.1-2.4c-0.7,0.3-1.3,0.8-1.8,1.4c0-0.1,0-0.2-0.1-0.3
				c-0.7-1.7-2.7-2.4-4.3-1.7c-0.5,0.2-0.9,0.6-1.3,1c-0.9-0.6-2.1-0.8-3.2-0.3c-0.5,0.2-0.9,0.5-1.2,0.9c-0.6-0.8-1.6-1.3-2.7-1.3
				c-1,0-1.9,0.6-2.4,1.4c-0.5-0.5-1.3-0.9-2.1-0.8c-0.8,0-1.5,0.4-2,1c-0.7-0.5-1.6-0.8-2.6-0.8c-2.3,0.1-4,2-3.9,4.3c0,0,0,0,0,0
				c-2,0.3-3.5,2.1-3.4,4.2c0.1,2.3,2,4,4.3,3.9c1.4-0.1,2.5-0.8,3.2-1.9c0.5,0.3,1,0.4,1.6,0.4c1.2-0.1,2.1-0.8,2.5-1.8
				c0.5,0.6,1.4,1,2.2,1c0.8,0,1.4-0.4,1.9-0.9c1.2,1.9,3.6,2.7,5.8,1.8c1.1-0.5,1.9-1.3,2.3-2.3c1.1,1.4,2.9,1.9,4.6,1.2
				c1-0.5,1.8-1.3,2.1-2.3c1.2,0.7,2.8,0.9,4.2,0.3C61.3-3.2,62.3-5.9,61.3-8.2z"/>
			<g id="Clip-4">
			</g>
			<defs>
				<filter id="Adobe_OpacityMaskFilter" filterUnits="userSpaceOnUse" x="24.1" y="45.2" width="12.3" height="5.2">
					<feColorMatrix  type="matrix" values="1 0 0 0 0  0 1 0 0 0  0 0 1 0 0  0 0 0 1 0"/>
				</filter>
			</defs>
			<mask maskUnits="userSpaceOnUse" x="24.1" y="45.2" width="12.3" height="5.2" id="mask-2_1_">
				<g class="st1">
					<polygon id="path-1_1_" class="st2" points="0,75 94.9,75 94.9,-11.6 0,-11.6 					"/>
				</g>
			</mask>
			<polygon id="Stroke-3" class="st3" points="24.3,50.1 36.1,50.1 36.1,45.4 24.3,45.4 			"/>
			<defs>
				<filter id="Adobe_OpacityMaskFilter_1_" filterUnits="userSpaceOnUse" x="4.4" y="28.8" width="18.1" height="3.6">
					<feColorMatrix  type="matrix" values="1 0 0 0 0  0 1 0 0 0  0 0 1 0 0  0 0 0 1 0"/>
				</filter>
			</defs>
			<mask maskUnits="userSpaceOnUse" x="4.4" y="28.8" width="18.1" height="3.6" id="mask-2_2_">
				<g class="st4">
					<polygon id="path-1_2_" class="st2" points="0,75 94.9,75 94.9,-11.6 0,-11.6 					"/>
				</g>
			</mask>
			<polygon id="Stroke-5" class="st5" points="4.7,32.2 22.3,32.2 22.3,29.1 4.7,29.1 			"/>
			<defs>
				<filter id="Adobe_OpacityMaskFilter_2_" filterUnits="userSpaceOnUse" x="70.6" y="15.6" width="12.9" height="9.7">
					<feColorMatrix  type="matrix" values="1 0 0 0 0  0 1 0 0 0  0 0 1 0 0  0 0 0 1 0"/>
				</filter>
			</defs>
			<mask maskUnits="userSpaceOnUse" x="70.6" y="15.6" width="12.9" height="9.7" id="mask-2_3_">
				<g class="st6">
					<polygon id="path-1_3_" class="st2" points="0,75 94.9,75 94.9,-11.6 0,-11.6 					"/>
				</g>
			</mask>
			<polyline id="Stroke-6" class="st7" points="70.9,21 75.4,24.6 83.1,16 			"/>
			<defs>
				<filter id="Adobe_OpacityMaskFilter_3_" filterUnits="userSpaceOnUse" x="70.6" y="27.6" width="12.9" height="9.7">
					<feColorMatrix  type="matrix" values="1 0 0 0 0  0 1 0 0 0  0 0 1 0 0  0 0 0 1 0"/>
				</filter>
			</defs>
			<mask maskUnits="userSpaceOnUse" x="70.6" y="27.6" width="12.9" height="9.7" id="mask-2_4_">
				<g class="st8">
					<polygon id="path-1_4_" class="st2" points="0,75 94.9,75 94.9,-11.6 0,-11.6 					"/>
				</g>
			</mask>
			<polyline id="Stroke-7" class="st9" points="70.9,33 75.4,36.6 83.1,28 			"/>
			<defs>
				<filter id="Adobe_OpacityMaskFilter_4_" filterUnits="userSpaceOnUse" x="70.6" y="39.1" width="12.9" height="9.7">
					<feColorMatrix  type="matrix" values="1 0 0 0 0  0 1 0 0 0  0 0 1 0 0  0 0 0 1 0"/>
				</filter>
			</defs>
			<mask maskUnits="userSpaceOnUse" x="70.6" y="39.1" width="12.9" height="9.7" id="mask-2_5_">
				<g class="st10">
					<polygon id="path-1_5_" class="st2" points="0,75 94.9,75 94.9,-11.6 0,-11.6 					"/>
				</g>
			</mask>
			<polyline id="Stroke-8" class="st11" points="70.9,44.5 75.4,48.1 83.1,39.5 			"/>
			<defs>
				<filter id="Adobe_OpacityMaskFilter_5_" filterUnits="userSpaceOnUse" x="53" y="1.8" width="41.9" height="57.8">
					<feColorMatrix  type="matrix" values="1 0 0 0 0  0 1 0 0 0  0 0 1 0 0  0 0 0 1 0"/>
				</filter>
			</defs>
			<mask maskUnits="userSpaceOnUse" x="53" y="1.8" width="41.9" height="57.8" id="mask-2_6_">
				<g class="st12">
					<polygon id="path-1_6_" class="st2" points="0,75 94.9,75 94.9,-11.6 0,-11.6 					"/>
				</g>
			</mask>
			<polygon id="Stroke-9" class="st13" points="94.4,55.4 94.4,59 53.5,59 53.5,6.5 64.1,6.5 64.1,2.3 83.7,2.3 83.7,6.5 94.4,6.5 
				94.4,27.3 			"/>
			<defs>
				<filter id="Adobe_OpacityMaskFilter_6_" filterUnits="userSpaceOnUse" x="61.2" y="6.5" width="25.4" height="4.8">
					<feColorMatrix  type="matrix" values="1 0 0 0 0  0 1 0 0 0  0 0 1 0 0  0 0 0 1 0"/>
				</filter>
			</defs>
			<mask maskUnits="userSpaceOnUse" x="61.2" y="6.5" width="25.4" height="4.8" id="mask-2_7_">
				<g class="st14">
					<polygon id="path-1_7_" class="st2" points="0,75 94.9,75 94.9,-11.6 0,-11.6 					"/>
				</g>
			</mask>
			<polyline id="Stroke-10" class="st15" points="61.7,6.5 61.7,10.8 86.1,10.8 86.1,6.5 			"/>
		</g>
		<text transform="matrix(1 0 0 1 61.6799 23.4466)" class="st16 st17 st18">1</text>
		<text transform="matrix(1 0 0 1 61.6799 35.0485)" class="st16 st17 st18">2</text>
		<text transform="matrix(1 0 0 1 61.6799 46.6503)" class="st16 st17 st18">3</text>
		<g id="Group-34" transform="translate(0.000000, 0.603500)">
			<polyline id="Stroke-12" class="st19" points="17.5,74.5 17.5,55 17.5,40.1 43,40.1 			"/>
			<polyline id="Stroke-14" class="st19" points="53.5,17.7 43,17.7 43,55 53.5,55 			"/>
			<polyline id="Stroke-16" class="st19" points="72.7,59 72.7,74.5 0.5,74.5 0.5,47.8 17.5,47.8 			"/>
			<polygon id="Stroke-18" class="st19" points="32,2.4 24.5,2.4 21.5,40.1 35,40.1 			"/>
			<polyline id="Stroke-20" class="st19" points="23.3,16.6 5.6,16.6 3.6,47.8 			"/>
			<path id="Stroke-22" class="st20" d="M23.7,11.8h9"/>
			<path id="Stroke-24" class="st20" d="M22.6,26.3h11.3"/>
			<path id="Stroke-26" class="st0" d="M13.5,29.1v3.1"/>
			<path id="Stroke-28" class="st0" d="M43,33.9h10.5"/>
			<path id="Stroke-30" class="st0" d="M17.5,66.1h55.3"/>
			<g id="Clip-33">
			</g>
			<defs>
				<filter id="Adobe_OpacityMaskFilter_7_" filterUnits="userSpaceOnUse" x="4.4" y="61.4" width="8.7" height="13.3">
					<feColorMatrix  type="matrix" values="1 0 0 0 0  0 1 0 0 0  0 0 1 0 0  0 0 0 1 0"/>
				</filter>
			</defs>
			<mask maskUnits="userSpaceOnUse" x="4.4" y="61.4" width="8.7" height="13.3" id="mask-4_1_">
				<g class="st21">
					<polygon id="path-3_1_" class="st2" points="0,75 94.9,75 94.9,-11.6 0,-11.6 					"/>
				</g>
			</mask>
			<polygon id="Stroke-32" class="st22" points="4.7,74.5 12.9,74.5 12.9,61.7 4.7,61.7 			"/>
		</g>
	</g>
</g>
</svg>
