<?xml version="1.0" encoding="utf-8"?>
<!-- Generator: Adobe Illustrator 24.1.2, SVG Export Plug-In . SVG Version: 6.00 Build 0)  -->
<svg version="1.1" id="Layer_1" xmlns="http://www.w3.org/2000/svg" xmlns:xlink="http://www.w3.org/1999/xlink" x="0px" y="0px"
	 viewBox="0 0 195.4 156.4" style="enable-background:new 0 0 195.4 156.4;" xml:space="preserve">
<style type="text/css">
	.st0{fill:none;stroke:#010204;}
	.st1{fill:none;stroke:#010204;stroke-width:0.5;}
	.st2{fill:none;stroke:#010204;stroke-width:0.5;stroke-dasharray:0.985,1.477;}
	.st3{fill:none;stroke:#010204;stroke-width:0.5;stroke-dasharray:1.032,1.549;}
	.st4{fill:none;stroke:#010204;stroke-width:0.5;stroke-dasharray:1.015,1.523;}
</style>
<desc>Created with Sketch.</desc>
<g id="icons_x2F_main_x2F_quality-expert-3">
	<g id="Group-168" transform="translate(0.000000, 13.000000)">
		<path id="Stroke-1" class="st0" d="M91.5,29.8c-1.4,5.4-6.6,9-12.2,8.4"/>
		<path id="Stroke-3" class="st0" d="M83.3,16.1c5.5,1.4,9.1,6.6,8.5,12.2"/>
		<path id="Stroke-5" class="st0" d="M69.7,24.3c1.4-5.5,6.6-9.1,12.2-8.4"/>
		<path id="Stroke-7" class="st0" d="M77.8,37.9c-5.5-1.4-9.1-6.6-8.4-12.2"/>
		<path id="Stroke-9" class="st0" d="M82.3,67c-2.7,0.1-5.4,0-8.2-0.5"/>
		<path id="Stroke-11" class="st0" d="M41.1,20.5c-1.3,7.8-0.2,15.5,2.7,22.3c0.6,1.5,1.4,2.9,2.3,4.3c1.4,2.2,2.9,4.4,4.6,6.4
			c0.3,0.3,0.5,0.6,0.8,0.9"/>
		<path id="Stroke-13" class="st0" d="M96.9,63.6c-2,0.9-4,1.6-6.1,2.2c0,0-4.3,1.3-8.5,1.3"/>
		<path id="Stroke-15" class="st0" d="M97.5,63.3c-0.2,0.1-0.4,0.2-0.6,0.3"/>
		<path id="Stroke-17" class="st0" d="M119.8,35c-1,4.8-2.8,9.4-5.5,13.6c-2.6,4-5.8,7.5-9.6,10.4c-2.3,1.8-4.8,3.5-7.5,4.5"/>
		<path id="Stroke-19" class="st0" d="M88.6-12.3c21.1,4.3,35.1,24.5,31.5,45.8"/>
		<path id="Stroke-21" class="st0" d="M72.6,66.3c-8.4-1.7-15.7-5.9-21.2-11.8"/>
		<path id="Stroke-23" class="st1" d="M41.9,19.2C46-1.7,66-15.5,87-12.1"/>
		<path id="Stroke-25" class="st1" d="M49,20.5c0-0.2,0.1-0.3,0.1-0.5"/>
		<path id="Stroke-27" class="st2" d="M49.5,18.6C53.6,3.1,68.5-7,84.4-5.1"/>
		<path id="Stroke-29" class="st1" d="M85.2-5c0.2,0,0.3,0,0.5,0.1"/>
		<path id="Stroke-31" class="st1" d="M55.6,21.6c0-0.2,0.1-0.3,0.1-0.5"/>
		<path id="Stroke-33" class="st3" d="M56.1,19.7C59.6,7.9,71,0.2,83.2,1.5"/>
		<path id="Stroke-35" class="st1" d="M83.9,1.6c0.2,0,0.3,0,0.5,0.1"/>
		<path id="Stroke-37" class="st1" d="M62.4,22.9c0-0.2,0.1-0.3,0.1-0.5"/>
		<path id="Stroke-39" class="st4" d="M62.9,20.9c2.7-8,10.6-13.3,19.1-12.6"/>
		<path id="Stroke-41" class="st1" d="M82.7,8.4c0.2,0,0.3,0,0.5,0.1"/>
		<path id="Stroke-43" class="st1" d="M84,64.1c-3,0.3-6.2,0.2-9.3-0.3"/>
		<path id="Stroke-45" class="st1" d="M46.4,41.7c-2.7-6.3-3.7-13.5-2.6-20.7"/>
		<path id="Stroke-47" class="st1" d="M117.1,34.4c-2.9,14.3-13.7,25-26.9,28.6c0,0-5.1,1.1-6.2,1.1"/>
		<path id="Stroke-49" class="st1" d="M88-9.5c19.6,4,32.6,22.8,29.3,42.5"/>
		<path id="Stroke-51" class="st1" d="M73.2,63.5c-10.2-2.1-18.5-8.1-23.8-16.2c0,0-2.4-4.1-3-5.6"/>
		<polygon id="Stroke-53" class="st1" points="77.8,37.7 79.4,38 74.1,66.7 72.5,66.4 		"/>
		<polygon id="Stroke-55" class="st1" points="87,-12.7 88.7,-12.4 83.4,16.3 81.8,16 		"/>
		<polyline id="Stroke-57" class="st1" points="61.8,24.4 69.6,25.8 69.9,24.2 41.2,18.9 40.9,20.6 61.8,24.4 		"/>
		<polygon id="Stroke-59" class="st1" points="120.3,33.4 120,35.1 91.3,29.8 91.6,28.2 		"/>
		<path id="Stroke-61" class="st1" d="M93.9,30.4c-1.7,6.7-8.1,11.1-14.9,10.3"/>
		<path id="Stroke-63" class="st1" d="M83.9,13.7c6.7,1.7,11.1,8,10.3,14.9"/>
		<path id="Stroke-65" class="st1" d="M77.2,40.4c-6.7-1.7-11.1-8.1-10.3-14.9"/>
		<path id="Stroke-67" class="st0" d="M51.7,94.5c1.1,5.5-2,11-7.3,12.9"/>
		<path id="Stroke-69" class="st0" d="M38.4,85.8c5.5-1.2,11,1.9,12.9,7.3"/>
		<path id="Stroke-71" class="st0" d="M29.7,99.1c-1.2-5.5,2-11.1,7.3-12.9"/>
		<path id="Stroke-73" class="st0" d="M42.9,107.8c-5.5,1.1-11.1-2-12.9-7.3"/>
		<path id="Stroke-75" class="st0" d="M30.7,58c20.9-5.4,42.2,6.7,48.4,27.4"/>
		<path id="Stroke-77" class="st0" d="M50.7,135.6c-10.8,2.8-21.7,0.9-30.6-4.5c-1.2-0.6-5.5-4-5.5-4c-5.6-4.8-10-11.3-12.2-18.9"/>
		<path id="Stroke-79" class="st1" d="M59.9,128.4c-2.6,1.6-5.4,2.8-8.5,3.7"/>
		<path id="Stroke-81" class="st1" d="M16.6,124.7c-5.2-4.5-9.2-10.4-11.3-17.4"/>
		<path id="Stroke-83" class="st1" d="M76.6,87.5c3.6,14-1.3,28.3-11.7,37.2c0,0-4.1,3.1-5.1,3.7"/>
		<path id="Stroke-85" class="st1" d="M31.5,60.8c19.3-5,39,6.2,44.7,25.3"/>
		<path id="Stroke-87" class="st1" d="M49.8,132.6c-9.9,2.5-19.9,0.7-28.1-4.2c0,0-3.9-2.7-5.1-3.7"/>
		<path id="Stroke-89" class="st1" d="M50,132.5c-0.1,0-0.1,0-0.2,0.1"/>
		<polygon id="Stroke-91" class="st1" points="42.7,107.4 44.4,106.9 52.3,135.6 50.7,136.1 		"/>
		<polygon id="Stroke-93" class="st1" points="29,57.9 30.6,57.5 38.6,86.2 37,86.6 		"/>
		<polyline id="Stroke-95" class="st1" points="22.7,102.6 30.5,100.5 30.1,98.9 1.3,106.8 1.7,108.5 22.7,102.6 		"/>
		<polygon id="Stroke-97" class="st1" points="79.4,85.2 79.8,86.8 51.3,94.7 50.8,93.1 		"/>
		<polyline id="Stroke-99" class="st1" points="14.7,127.1 9.3,127.2 9.3,137.6 19.9,137.6 19.9,130.8 		"/>
		<path id="Stroke-101" class="st0" d="M52.1,135.1c3.3-1,6.4-2.4,9.2-4.1c0.2-0.1,0.4-0.3,0.7-0.4c0.2-0.2,0.5-0.3,0.7-0.5
			c0.3-0.2,0.5-0.3,0.7-0.5c0.2-0.2,0.5-0.4,0.7-0.5c0.2-0.2,0.5-0.4,0.7-0.5c0.2-0.2,0.4-0.3,0.6-0.5c0.3-0.3,0.6-0.5,1-0.8
			c0.2-0.1,0.4-0.3,0.5-0.4c0.1-0.1,0.2-0.2,0.3-0.2c0.2-0.2,0.5-0.4,0.7-0.7c0.2-0.2,0.5-0.4,0.7-0.7c0.2-0.2,0.5-0.5,0.7-0.7
			c0.2-0.2,0.4-0.5,0.7-0.7c0.2-0.2,0.4-0.5,0.6-0.7c0.2-0.2,0.4-0.5,0.6-0.7c0.2-0.2,0.4-0.5,0.6-0.8c0.2-0.3,0.4-0.5,0.6-0.8
			c0.2-0.3,0.4-0.5,0.6-0.8c0.2-0.3,0.4-0.5,0.6-0.8c0.2-0.3,0.4-0.5,0.5-0.8c0.2-0.3,0.3-0.5,0.5-0.8c0.2-0.3,0.3-0.6,0.5-0.8
			c0.2-0.3,0.3-0.6,0.5-0.8s0.3-0.6,0.5-0.9c0.1-0.3,0.3-0.6,0.4-0.9c0.1-0.3,0.3-0.6,0.4-0.9c0.1-0.3,0.3-0.6,0.4-0.9
			s0.3-0.6,0.4-0.9c0.1-0.3,0.2-0.6,0.4-0.9s0.2-0.6,0.3-0.9c0.1-0.3,0.2-0.6,0.3-0.9c0.1-0.3,0.2-0.6,0.3-0.9
			c0.1-0.3,0.2-0.6,0.3-0.9c0.1-0.3,0.2-0.6,0.2-0.9c0.1-0.3,0.2-0.6,0.2-0.9c0.1-0.3,0.1-0.6,0.2-1c0.1-0.3,0.1-0.6,0.2-1
			c0.1-0.3,0.1-0.6,0.2-1c0-0.3,0.1-0.6,0.1-1c0-0.3,0.1-0.7,0.1-1c0-0.3,0.1-0.7,0.1-1c0-0.3,0-0.7,0.1-1c0-0.3,0-0.7,0-1
			c0-0.3,0-0.7,0-1c0-0.3,0-0.7,0-1c0-0.3,0-0.7,0-1c0-0.3,0-0.7-0.1-1c0-0.3-0.1-0.7-0.1-1c0-0.3-0.1-0.7-0.1-1
			c0-0.3-0.1-0.7-0.1-1c-0.1-0.3-0.1-0.7-0.2-1c-0.1-0.3-0.1-0.7-0.2-1c-0.1-0.3-0.1-0.7-0.2-1c-0.1-0.2-0.1-0.4-0.2-0.7"/>
		<polyline id="Stroke-103" class="st1" points="61.3,130.8 61.3,137.6 72,137.6 72,127.2 66.8,127.1 		"/>
		<path id="Stroke-105" class="st1" d="M53.9,94.1c1.4,6.6-2.4,13.2-8.7,15.4"/>
		<path id="Stroke-107" class="st1" d="M37.9,83.6c6.6-1.4,13.2,2.3,15.5,8.7"/>
		<path id="Stroke-109" class="st1" d="M27.5,99.6c-1.4-6.6,2.4-13.3,8.8-15.5"/>
		<path id="Stroke-111" class="st1" d="M43.4,110c-6.6,1.4-13.2-2.4-15.5-8.8"/>
		<path id="Stroke-113" class="st1" d="M110,89.2c-2.4,3.4-3,7.6-2,11.4"/>
		<path id="Stroke-115" class="st1" d="M128.3,85.7c-5.5-3.6-12.8-2.7-17.3,2.2l-0.1,0.1"/>
		<path id="Stroke-117" class="st1" d="M134,100.4c1.2-4.7-0.1-9.9-3.9-13.3l-0.6-0.5"/>
		<path id="Stroke-119" class="st0" d="M1.8,106.8c-5.4-20.9,6.8-42.2,27.4-48.4"/>
		<path id="Stroke-121" class="st1" d="M4.8,105.9c-5-19.3,6.2-39,25.3-44.7"/>
		<path id="Stroke-123" class="st1" d="M88.6,114.8c-0.2-0.4-0.5-0.8-0.7-1.3c-1.2-2.4-2.2-5-3-7.6c0-0.1,0-0.2-0.1-0.3
			c-0.2-0.9-0.5-1.9-0.6-2.8c-0.1-0.9-0.3-1.9-0.3-2.8c-0.2-2.1-0.2-4.1,0-6.2c0.2-2,0.5-4,1-6c0.5-2,1.1-3.9,1.9-5.7
			c0.8-1.8,1.7-3.6,2.8-5.3c0.5-0.7,1-1.5,1.5-2.2"/>
		<path id="Stroke-125" class="st1" d="M144.1,67.8c5.7,4.6,10.1,10.8,12.3,18.3l0.4,1.3c1.1,4.3,1.4,8.6,1,12.8"/>
		<path id="Stroke-127" class="st1" d="M92.3,73.1c0.3-0.4,0.6-0.8,1-1.1c1.4-1.5,2.8-2.9,4.4-4.2c1.6-1.3,3.3-2.4,5.1-3.4
			c1.8-1,3.8-1.9,5.8-2.6c0.5-0.2,1.1-0.4,1.7-0.5l1.4-0.4c11.1-2.9,22.4-0.4,31,6"/>
		<path id="Stroke-129" class="st0" d="M128.3,88.5c3.4,3,4.6,7.6,3.3,11.7"/>
		<path id="Stroke-131" class="st0" d="M112.8,89.1c3.7-3.8,9.6-4.5,14.1-1.7"/>
		<path id="Stroke-133" class="st0" d="M110.2,100.3c-1-3.2-0.5-6.8,1.5-9.7"/>
		<path id="Stroke-135" class="st0" d="M110.2,100.5c0-0.1,0-0.1-0.1-0.2"/>
		<path id="Stroke-137" class="st0" d="M88.8,72.6C84,79,81.5,86.3,80.9,93.7c0,0,0,4.7,0.1,6.8"/>
		<path id="Stroke-139" class="st0" d="M146.1,65.4c10.8,8.7,15.9,21.9,14.7,34.9"/>
		<path id="Stroke-141" class="st0" d="M88.6,120.3c-4.3-5.9-6.9-12.7-7.6-19.8"/>
		<polygon id="Stroke-143" class="st1" points="145.1,64 146.4,65 127.9,88.8 126.6,87.8 		"/>
		<polyline id="Stroke-145" class="st1" points="105.6,85.8 112.1,90.8 113.1,89.4 89.3,70.9 88.2,72.3 105.6,85.8 		"/>
		<path id="Stroke-147" class="st0" d="M89.7,71.3c13.5-16.8,37.9-19.8,55.2-6.9"/>
		<polygon id="Stroke-149" class="st1" points="88.5,138.7 194.9,138.7 194.9,134.4 88.5,134.4 		"/>
		<polygon id="Stroke-151" class="st1" points="88.5,143.2 94.1,143.2 94.1,138.8 88.5,138.8 		"/>
		<polygon id="Stroke-152" class="st1" points="138.9,143.2 144.5,143.2 144.5,138.8 138.9,138.8 		"/>
		<polygon id="Stroke-153" class="st1" points="189.3,143.1 194.9,143.1 194.9,138.7 189.3,138.7 		"/>
		<path id="Stroke-154" class="st0" d="M88.6,111.8h106.3"/>
		<polyline id="Stroke-155" class="st0" points="194.9,111.8 194.9,100.4 88.6,100.4 88.6,111.8 		"/>
		<polygon id="Stroke-156" class="st1" points="101.9,111.7 106.5,111.7 106.5,100.4 101.9,100.4 		"/>
		<polygon id="Stroke-157" class="st1" points="177.6,111.7 182.2,111.7 182.2,100.4 177.6,100.4 		"/>
		<polygon id="Stroke-158" class="st1" points="139.5,111.7 144,111.7 144,100.4 139.5,100.4 		"/>
		<path id="Stroke-159" class="st0" d="M194.9,123.1v-11.3"/>
		<path id="Stroke-160" class="st0" d="M88.6,111.8v11.3"/>
		<polygon id="Stroke-161" class="st1" points="101.9,123.1 106.5,123.1 106.5,111.8 101.9,111.8 		"/>
		<polygon id="Stroke-162" class="st1" points="177.6,123.1 182.2,123.1 182.2,111.8 177.6,111.8 		"/>
		<polygon id="Stroke-163" class="st1" points="139.5,123.1 144,123.1 144,111.8 139.5,111.8 		"/>
		<polygon id="Stroke-164" class="st0" points="88.6,134.5 194.9,134.5 194.9,123.1 88.6,123.1 		"/>
		<polygon id="Stroke-165" class="st1" points="101.9,134.4 106.5,134.4 106.5,123.1 101.9,123.1 		"/>
		<polygon id="Stroke-166" class="st1" points="177.6,134.4 182.2,134.4 182.2,123.1 177.6,123.1 		"/>
		<polygon id="Stroke-167" class="st1" points="139.5,134.4 144,134.4 144,123.1 139.5,123.1 		"/>
	</g>
</g>
</svg>
