<svg width="22" height="33" viewBox="0 0 22 33" fill="none" xmlns="http://www.w3.org/2000/svg">
<g>
<path d="M16.4663 33C14.0004 33 11.4677 31.578 8.92009 28.7625C6.98153 26.6187 5.03555 23.6174 3.4238 20.3088C1.56695 16.4857 0.378566 12.6984 0.0740424 9.65418C-0.111643 7.80338 0.0220505 6.18839 0.460268 4.84495C0.980187 3.27285 1.91604 2.07233 3.25297 1.27198L4.62705 0.428757C5.08012 0.150065 5.59261 0 6.12738 0C7.19693 0 8.18478 0.60026 8.63785 1.53638L10.9255 6.25271C11.4825 7.40321 11.074 8.78952 9.98221 9.49697L7.96195 10.869C8.05108 11.5621 8.48187 13.3343 10.3536 17.2003C12.2179 21.052 13.3617 22.5097 13.8667 23.0314L16.2509 22.424C16.496 22.3525 16.7486 22.3168 17.0011 22.3168C18.041 22.3168 18.9991 22.9028 19.4373 23.8103L21.7249 28.5266C22.0666 29.2269 22.074 30.0273 21.7472 30.7347C21.4204 31.4422 20.7965 31.971 20.0315 32.1997L18.494 32.657C17.8478 32.8857 17.1571 33 16.4663 33ZM6.12738 1.14335C5.82286 1.14335 5.52576 1.2291 5.27323 1.38631L3.89173 2.24383C2.7999 2.89411 2.02745 3.88025 1.60409 5.18796C1.21044 6.38133 1.09903 7.84625 1.26986 9.54699C1.55952 12.4697 2.71077 16.1213 4.51563 19.83C6.07539 23.0457 7.96195 25.9541 9.82623 28.0121C12.1362 30.5632 14.3718 31.8566 16.4738 31.8566C17.0308 31.8566 17.5879 31.7638 18.1227 31.578L18.1524 31.5708L19.7047 31.1135C20.1429 30.9848 20.4994 30.6776 20.6851 30.2774C20.8708 29.8772 20.8634 29.4199 20.6703 29.0197L18.3826 24.3034C18.1375 23.796 17.6027 23.4744 17.0234 23.4744C16.8823 23.4744 16.7337 23.4959 16.6 23.5316L16.5852 23.5388L13.5474 24.2962L13.3097 24.1033C11.9282 22.9599 10.0342 19.2369 9.28403 17.6934C8.52644 16.1356 6.77357 12.3339 6.75871 10.6046V10.3045L9.3286 8.5537C9.94507 8.16068 10.1679 7.38177 9.85594 6.73863L7.5683 2.0223C7.30091 1.48636 6.73643 1.14335 6.12738 1.14335Z" />
</g>

</svg>
