<?xml version="1.0" encoding="utf-8"?>
<!-- Generator: Adobe Illustrator 24.1.2, SVG Export Plug-In . SVG Version: 6.00 Build 0)  -->
<svg version="1.1" id="Layer_1" xmlns="http://www.w3.org/2000/svg" xmlns:xlink="http://www.w3.org/1999/xlink" x="0px" y="0px"
	 viewBox="0 0 231.8 142.5" style="enable-background:new 0 0 231.8 142.5;" xml:space="preserve">
<style type="text/css">
	.st0{fill:none;stroke:#010204;}
	.st1{fill:none;stroke:#010204;stroke-width:0.5;}
</style>
<desc>Created with Sketch.</desc>
<g id="icons_x2F_main_x2F_quality-expert-4">
	<g id="Group-39" transform="translate(0.000000, 27.000000)">
		<g id="Group-4" transform="translate(0.000000, 0.499000)">
			<polygon id="Stroke-1" class="st0" points="12.8,103.2 231.3,103.2 231.3,-27 12.8,-27 			"/>
			<polyline id="Stroke-3" class="st0" points="219.1,103.2 219.1,114.5 0.5,114.5 0.5,-15.7 12.6,-15.7 			"/>
		</g>
		<polygon id="Stroke-5" class="st0" points="105.2,-20.2 34.5,-20.2 19.3,-20.2 18.9,-20.2 18.9,50.8 34.5,50.8 34.5,-4.7 
			105.2,-4.7 		"/>
		<path id="Stroke-6" class="st0" d="M56.8-20.2v6.9"/>
		<path id="Stroke-7" class="st0" d="M63.8-20.2v2.7"/>
		<path id="Stroke-8" class="st0" d="M70-20.2v6.9"/>
		<path id="Stroke-9" class="st0" d="M77-20.2v2.7"/>
		<path id="Stroke-10" class="st0" d="M83.2-20.2v6.9"/>
		<path id="Stroke-11" class="st0" d="M90.2-20.2v2.7"/>
		<path id="Stroke-12" class="st0" d="M30.4-20.2v6.9"/>
		<path id="Stroke-13" class="st0" d="M37.4-20.2v2.7"/>
		<path id="Stroke-14" class="st0" d="M43.6-20.2v6.9"/>
		<path id="Stroke-15" class="st0" d="M50.6-20.2v2.7"/>
		<path id="Stroke-16" class="st0" d="M96.4-20.2v6.9"/>
		<path id="Stroke-17" class="st0" d="M19.3,4.4h6.9"/>
		<path id="Stroke-18" class="st0" d="M19.3,11.4H22"/>
		<path id="Stroke-19" class="st0" d="M19.3,17.6h6.9"/>
		<path id="Stroke-20" class="st0" d="M19.3,24.6H22"/>
		<path id="Stroke-21" class="st0" d="M19.3,30.8h6.9"/>
		<path id="Stroke-22" class="st0" d="M19.3,37.8H22"/>
		<path id="Stroke-23" class="st0" d="M19.3-8.8h6.9"/>
		<path id="Stroke-24" class="st0" d="M19.3-1.8H22"/>
		<path id="Stroke-25" class="st0" d="M19.3,44h6.9"/>
		<path id="Stroke-26" class="st1" d="M170-26.2L90.3,104"/>
		<path id="Stroke-27" class="st1" d="M199.7-26.2L120,104"/>
		<path id="Stroke-28" class="st1" d="M221.2-26.2L141.5,104"/>
		<path id="Stroke-29" class="st1" d="M230.5-26.2L150.8,104"/>
		<g id="Group-38" transform="translate(60.000000, 130.499000)">
			<path id="Stroke-30" class="st1" d="M8.8-26.9L0.3-15.3"/>
			<path id="Stroke-32" class="st1" d="M38.5-26.9L30-15.3"/>
			<path id="Stroke-34" class="st1" d="M59.1-26.8l-8.3,11.5"/>
			<path id="Stroke-36" class="st1" d="M68.5-26.9L60-15.3"/>
		</g>
	</g>
</g>
</svg>
