<?xml version="1.0" encoding="utf-8"?>
<!-- Generator: Adobe Illustrator 24.0.0, SVG Export Plug-In . SVG Version: 6.00 Build 0)  -->
<svg version="1.1" id="Layer_1" xmlns="http://www.w3.org/2000/svg" xmlns:xlink="http://www.w3.org/1999/xlink" x="0px" y="0px"
	 viewBox="0 0 121 84.8" style="enable-background:new 0 0 121 84.8;" xml:space="preserve">
<style type="text/css">
	.st0{fill:none;stroke:#111212;stroke-linecap:round;stroke-linejoin:round;}
	.st1{fill:none;stroke:#111212;stroke-width:0.5;stroke-dasharray:1,1.5;}
	.st2{fill:none;stroke:#111212;}
	.st3{fill:none;stroke:#111212;stroke-width:0.5;stroke-linecap:round;stroke-linejoin:round;}
</style>
<title>icons/main/delivery 1</title>
<desc>Created with Sketch.</desc>
<g id="icons_x2F_main_x2F_delivery-1">
	<g id="Group-61" transform="translate(0.000000, 15.000000)">
		<path id="Stroke-1" class="st0" d="M22.3,52.9c0,0,23.4-7.2,21.8-40.6c0,0-11.6,0-21.8-7.2c-10.2,7.2-21.8,7.3-21.8,7.3
			C-1.1,45.6,22.3,52.9,22.3,52.9z"/>
		<path id="Stroke-3" class="st1" d="M22.3,49.4c0,0,20-6.2,18.6-34.7c0,0-9.9,0-18.6-6.2c-8.7,6.2-18.6,6.2-18.6,6.2
			C2.3,43.2,22.3,49.4,22.3,49.4z"/>
		<polyline id="Stroke-5" class="st2" points="43.7,22.9 120.5,22.9 120.5,69.3 15.6,69.3 15.6,49.4 		"/>
		<path id="Stroke-7" class="st2" d="M116.2,25.9v43.4"/>
		<path id="Stroke-9" class="st2" d="M19.6,51.7v14.4"/>
		<path id="Stroke-11" class="st2" d="M43.3,25.9h76.9"/>
		<path id="Stroke-13" class="st2" d="M15.6,66.1h100.6"/>
		<path id="Stroke-15" class="st3" d="M24.1,52.2v13.8"/>
		<path id="Stroke-17" class="st3" d="M28.4,49.7v16.4"/>
		<path id="Stroke-19" class="st3" d="M32.8,46.5v19.5"/>
		<path id="Stroke-21" class="st3" d="M37.2,40.9v25.2"/>
		<path id="Stroke-23" class="st3" d="M41.5,32.3v33.7"/>
		<path id="Stroke-25" class="st3" d="M45.9,25.9v40.2"/>
		<path id="Stroke-27" class="st3" d="M50.3,25.9v40.2"/>
		<path id="Stroke-29" class="st3" d="M54.6,25.9v40.2"/>
		<path id="Stroke-31" class="st3" d="M59,25.9v40.2"/>
		<path id="Stroke-33" class="st3" d="M63.4,25.9v40.2"/>
		<path id="Stroke-35" class="st3" d="M67.7,25.9v40.2"/>
		<path id="Stroke-37" class="st3" d="M72.1,25.9v40.2"/>
		<path id="Stroke-39" class="st3" d="M76.5,25.9v40.2"/>
		<path id="Stroke-41" class="st3" d="M80.8,25.9v40.2"/>
		<path id="Stroke-43" class="st3" d="M85.2,25.9v40.2"/>
		<path id="Stroke-45" class="st3" d="M89.6,25.9v40.2"/>
		<path id="Stroke-47" class="st3" d="M93.9,25.9v40.2"/>
		<path id="Stroke-49" class="st3" d="M98.3,25.9v40.2"/>
		<path id="Stroke-51" class="st3" d="M102.6,25.9v40.2"/>
		<path id="Stroke-53" class="st3" d="M107,25.9v40.2"/>
		<path id="Stroke-55" class="st3" d="M111.4,25.9v40.2"/>
		<polyline id="Stroke-57" class="st3" points="36.9,11.3 66.5,-6.6 118.3,22.9 		"/>
		<path id="Stroke-59" class="st3" d="M66.5-6.6v-8.2"/>
	</g>
</g>
</svg>
