<svg width="276" height="322" viewBox="0 0 276 322" fill="none" xmlns="http://www.w3.org/2000/svg">
<path d="M3.75576 54.834C3.33576 54.834 2.96376 54.99 2.63976 55.302C2.32776 55.614 2.17176 56.142 2.17176 56.886L1.41576 56.76C1.43976 55.872 1.65576 55.212 2.06376 54.78C2.48376 54.336 3.05976 54.114 3.79176 54.114C4.63176 54.114 5.23176 54.36 5.59176 54.852C5.96376 55.332 6.14976 55.968 6.14976 56.76C6.14976 57.336 6.09576 57.834 5.98776 58.254C5.87976 58.674 5.71176 59.106 5.48376 59.55L2.26176 66.03H6.04176V66.75H1.41576V66.03L4.87176 59.082C5.06376 58.698 5.18976 58.32 5.24976 57.948C5.30976 57.576 5.33976 57.18 5.33976 56.76C5.33976 56.52 5.31576 56.286 5.26776 56.058C5.23176 55.818 5.15376 55.608 5.03376 55.428C4.92576 55.248 4.76976 55.104 4.56576 54.996C4.36176 54.888 4.09176 54.834 3.75576 54.834ZM12.4055 64.698C12.4055 65.07 12.3395 65.394 12.2075 65.67C12.0875 65.934 11.9195 66.156 11.7035 66.336C11.4995 66.516 11.2535 66.654 10.9655 66.75C10.6895 66.834 10.3955 66.876 10.0835 66.876C9.77146 66.876 9.47146 66.834 9.18346 66.75C8.90746 66.654 8.66146 66.516 8.44546 66.336C8.24146 66.156 8.07346 65.934 7.94146 65.67C7.82146 65.394 7.76146 65.07 7.76146 64.698V56.292C7.76146 55.932 7.82146 55.62 7.94146 55.356C8.07346 55.08 8.24146 54.852 8.44546 54.672C8.66146 54.48 8.90746 54.342 9.18346 54.258C9.47146 54.162 9.77146 54.114 10.0835 54.114C10.4075 54.114 10.7075 54.162 10.9835 54.258C11.2715 54.342 11.5175 54.48 11.7215 54.672C11.9375 54.852 12.1055 55.08 12.2255 55.356C12.3455 55.62 12.4055 55.932 12.4055 56.292V64.698ZM11.6315 56.274C11.6315 55.83 11.4875 55.482 11.1995 55.23C10.9115 54.966 10.5395 54.834 10.0835 54.834C9.62746 54.834 9.24946 54.966 8.94946 55.23C8.66146 55.482 8.51746 55.83 8.51746 56.274V64.716C8.51746 65.16 8.66146 65.514 8.94946 65.778C9.24946 66.03 9.62746 66.156 10.0835 66.156C10.5395 66.156 10.9115 66.03 11.1995 65.778C11.4875 65.514 11.6315 65.16 11.6315 64.716V56.274ZM16.7532 66.732V55.068L14.8272 56.436V55.572L16.7172 54.222H17.5272V66.732H16.7532Z" fill="white"/>
<path d="M3.75576 82.834C3.33576 82.834 2.96376 82.99 2.63976 83.302C2.32776 83.614 2.17176 84.142 2.17176 84.886L1.41576 84.76C1.43976 83.872 1.65576 83.212 2.06376 82.78C2.48376 82.336 3.05976 82.114 3.79176 82.114C4.63176 82.114 5.23176 82.36 5.59176 82.852C5.96376 83.332 6.14976 83.968 6.14976 84.76C6.14976 85.336 6.09576 85.834 5.98776 86.254C5.87976 86.674 5.71176 87.106 5.48376 87.55L2.26176 94.03H6.04176V94.75H1.41576V94.03L4.87176 87.082C5.06376 86.698 5.18976 86.32 5.24976 85.948C5.30976 85.576 5.33976 85.18 5.33976 84.76C5.33976 84.52 5.31576 84.286 5.26776 84.058C5.23176 83.818 5.15376 83.608 5.03376 83.428C4.92576 83.248 4.76976 83.104 4.56576 82.996C4.36176 82.888 4.09176 82.834 3.75576 82.834ZM12.4055 92.698C12.4055 93.07 12.3395 93.394 12.2075 93.67C12.0875 93.934 11.9195 94.156 11.7035 94.336C11.4995 94.516 11.2535 94.654 10.9655 94.75C10.6895 94.834 10.3955 94.876 10.0835 94.876C9.77146 94.876 9.47146 94.834 9.18346 94.75C8.90746 94.654 8.66146 94.516 8.44546 94.336C8.24146 94.156 8.07346 93.934 7.94146 93.67C7.82146 93.394 7.76146 93.07 7.76146 92.698V84.292C7.76146 83.932 7.82146 83.62 7.94146 83.356C8.07346 83.08 8.24146 82.852 8.44546 82.672C8.66146 82.48 8.90746 82.342 9.18346 82.258C9.47146 82.162 9.77146 82.114 10.0835 82.114C10.4075 82.114 10.7075 82.162 10.9835 82.258C11.2715 82.342 11.5175 82.48 11.7215 82.672C11.9375 82.852 12.1055 83.08 12.2255 83.356C12.3455 83.62 12.4055 83.932 12.4055 84.292V92.698ZM11.6315 84.274C11.6315 83.83 11.4875 83.482 11.1995 83.23C10.9115 82.966 10.5395 82.834 10.0835 82.834C9.62746 82.834 9.24946 82.966 8.94946 83.23C8.66146 83.482 8.51746 83.83 8.51746 84.274V92.716C8.51746 93.16 8.66146 93.514 8.94946 93.778C9.24946 94.03 9.62746 94.156 10.0835 94.156C10.5395 94.156 10.9115 94.03 11.1995 93.778C11.4875 93.514 11.6315 93.16 11.6315 92.716V84.274ZM16.4472 82.834C16.0272 82.834 15.6552 82.99 15.3312 83.302C15.0192 83.614 14.8632 84.142 14.8632 84.886L14.1072 84.76C14.1312 83.872 14.3472 83.212 14.7552 82.78C15.1752 82.336 15.7512 82.114 16.4832 82.114C17.3232 82.114 17.9232 82.36 18.2832 82.852C18.6552 83.332 18.8412 83.968 18.8412 84.76C18.8412 85.336 18.7872 85.834 18.6792 86.254C18.5712 86.674 18.4032 87.106 18.1752 87.55L14.9532 94.03H18.7332V94.75H14.1072V94.03L17.5632 87.082C17.7552 86.698 17.8812 86.32 17.9412 85.948C18.0012 85.576 18.0312 85.18 18.0312 84.76C18.0312 84.52 18.0072 84.286 17.9592 84.058C17.9232 83.818 17.8452 83.608 17.7252 83.428C17.6172 83.248 17.4612 83.104 17.2572 82.996C17.0532 82.888 16.7832 82.834 16.4472 82.834Z" fill="white"/>
<path d="M3.79176 110.114C4.22376 110.114 4.58376 110.174 4.87176 110.294C5.15976 110.402 5.38776 110.564 5.55576 110.78C5.73576 110.984 5.86176 111.236 5.93376 111.536C6.00576 111.824 6.04176 112.142 6.04176 112.49V114.146C6.02976 114.362 6.00576 114.572 5.96976 114.776C5.94576 114.98 5.89176 115.178 5.80776 115.37C5.72376 115.55 5.60976 115.712 5.46576 115.856C5.32176 116 5.12976 116.114 4.88976 116.198V116.216C5.15376 116.312 5.36376 116.438 5.51976 116.594C5.67576 116.75 5.78976 116.936 5.86176 117.152C5.94576 117.356 5.99376 117.584 6.00576 117.836C6.02976 118.088 6.04176 118.346 6.04176 118.61V120.464C6.04176 121.22 5.84376 121.814 5.44776 122.246C5.05176 122.666 4.46376 122.876 3.68376 122.876C3.01176 122.876 2.45976 122.684 2.02776 122.3C1.60776 121.904 1.39776 121.274 1.39776 120.41L2.17176 120.194C2.17176 120.794 2.27976 121.274 2.49576 121.634C2.72376 121.982 3.12576 122.156 3.70176 122.156C4.15776 122.156 4.53576 122.03 4.83576 121.778C5.13576 121.526 5.28576 121.094 5.28576 120.482V118.394C5.28576 117.722 5.14176 117.254 4.85376 116.99C4.57776 116.726 4.22376 116.594 3.79176 116.594H3.30576V115.856H3.82776C4.24776 115.856 4.59576 115.736 4.87176 115.496C5.14776 115.244 5.28576 114.8 5.28576 114.164V112.382C5.28576 111.938 5.16576 111.572 4.92576 111.284C4.68576 110.996 4.28976 110.852 3.73776 110.852C3.18576 110.852 2.78376 111.032 2.53176 111.392C2.29176 111.752 2.17176 112.208 2.17176 112.76C2.03976 112.736 1.90776 112.718 1.77576 112.706C1.65576 112.682 1.52976 112.658 1.39776 112.634C1.40976 111.878 1.61376 111.272 2.00976 110.816C2.40576 110.348 2.99976 110.114 3.79176 110.114ZM12.4055 120.698C12.4055 121.07 12.3395 121.394 12.2075 121.67C12.0875 121.934 11.9195 122.156 11.7035 122.336C11.4995 122.516 11.2535 122.654 10.9655 122.75C10.6895 122.834 10.3955 122.876 10.0835 122.876C9.77146 122.876 9.47146 122.834 9.18346 122.75C8.90746 122.654 8.66146 122.516 8.44546 122.336C8.24146 122.156 8.07346 121.934 7.94146 121.67C7.82146 121.394 7.76146 121.07 7.76146 120.698V112.292C7.76146 111.932 7.82146 111.62 7.94146 111.356C8.07346 111.08 8.24146 110.852 8.44546 110.672C8.66146 110.48 8.90746 110.342 9.18346 110.258C9.47146 110.162 9.77146 110.114 10.0835 110.114C10.4075 110.114 10.7075 110.162 10.9835 110.258C11.2715 110.342 11.5175 110.48 11.7215 110.672C11.9375 110.852 12.1055 111.08 12.2255 111.356C12.3455 111.62 12.4055 111.932 12.4055 112.292V120.698ZM11.6315 112.274C11.6315 111.83 11.4875 111.482 11.1995 111.23C10.9115 110.966 10.5395 110.834 10.0835 110.834C9.62746 110.834 9.24946 110.966 8.94946 111.23C8.66146 111.482 8.51746 111.83 8.51746 112.274V120.716C8.51746 121.16 8.66146 121.514 8.94946 121.778C9.24946 122.03 9.62746 122.156 10.0835 122.156C10.5395 122.156 10.9115 122.03 11.1995 121.778C11.4875 121.514 11.6315 121.16 11.6315 120.716V112.274ZM16.7532 122.732V111.068L14.8272 112.436V111.572L16.7172 110.222H17.5272V122.732H16.7532Z" fill="white"/>
<path d="M5.48376 260.572V262.732H4.70976V260.572H1.01976V259.87L3.62976 250.222H4.40376L1.75776 259.87H4.70976V256.36H5.48376V259.87H6.50976V260.572H5.48376ZM12.4055 260.698C12.4055 261.07 12.3395 261.394 12.2075 261.67C12.0875 261.934 11.9195 262.156 11.7035 262.336C11.4995 262.516 11.2535 262.654 10.9655 262.75C10.6895 262.834 10.3955 262.876 10.0835 262.876C9.77146 262.876 9.47146 262.834 9.18346 262.75C8.90746 262.654 8.66146 262.516 8.44546 262.336C8.24146 262.156 8.07346 261.934 7.94146 261.67C7.82146 261.394 7.76146 261.07 7.76146 260.698V252.292C7.76146 251.932 7.82146 251.62 7.94146 251.356C8.07346 251.08 8.24146 250.852 8.44546 250.672C8.66146 250.48 8.90746 250.342 9.18346 250.258C9.47146 250.162 9.77146 250.114 10.0835 250.114C10.4075 250.114 10.7075 250.162 10.9835 250.258C11.2715 250.342 11.5175 250.48 11.7215 250.672C11.9375 250.852 12.1055 251.08 12.2255 251.356C12.3455 251.62 12.4055 251.932 12.4055 252.292V260.698ZM11.6315 252.274C11.6315 251.83 11.4875 251.482 11.1995 251.23C10.9115 250.966 10.5395 250.834 10.0835 250.834C9.62746 250.834 9.24946 250.966 8.94946 251.23C8.66146 251.482 8.51746 251.83 8.51746 252.274V260.716C8.51746 261.16 8.66146 261.514 8.94946 261.778C9.24946 262.03 9.62746 262.156 10.0835 262.156C10.5395 262.156 10.9115 262.03 11.1995 261.778C11.4875 261.514 11.6315 261.16 11.6315 260.716V252.274ZM14.8632 255.154C14.8632 255.598 15.0072 255.946 15.2952 256.198C15.5832 256.45 15.9552 256.576 16.4112 256.576C16.6632 256.576 16.8852 256.528 17.0772 256.432C17.2812 256.324 17.4492 256.192 17.5812 256.036C17.7132 255.868 17.8092 255.682 17.8692 255.478C17.9412 255.262 17.9772 255.046 17.9772 254.83V252.238C17.9772 251.794 17.8332 251.446 17.5452 251.194C17.2572 250.942 16.8852 250.816 16.4292 250.816C15.9732 250.816 15.5952 250.942 15.2952 251.194C15.0072 251.446 14.8632 251.794 14.8632 252.238V255.154ZM17.4012 256.828C17.2692 256.96 17.0892 257.074 16.8612 257.17C16.6452 257.254 16.4292 257.296 16.2132 257.296C15.5652 257.296 15.0492 257.11 14.6652 256.738C14.2932 256.354 14.1072 255.82 14.1072 255.136V252.292C14.1072 251.92 14.1672 251.602 14.2872 251.338C14.4192 251.062 14.5872 250.834 14.7912 250.654C15.0072 250.474 15.2532 250.342 15.5292 250.258C15.8172 250.162 16.1172 250.114 16.4292 250.114C17.0892 250.114 17.6412 250.294 18.0852 250.654C18.5292 251.002 18.7512 251.548 18.7512 252.292V254.614C18.7512 255.01 18.7212 255.352 18.6612 255.64C18.6012 255.916 18.5292 256.174 18.4452 256.414L16.0152 262.75H15.2232C15.3072 262.546 15.4152 262.264 15.5472 261.904C15.6912 261.532 15.8412 261.13 15.9972 260.698C16.1652 260.266 16.3332 259.828 16.5012 259.384C16.6692 258.94 16.8192 258.538 16.9512 258.178C17.0952 257.806 17.2092 257.5 17.2932 257.26C17.3892 257.008 17.4432 256.87 17.4552 256.846L17.4012 256.828Z" fill="white"/>
<path d="M3.79176 138.114C4.22376 138.114 4.58376 138.174 4.87176 138.294C5.15976 138.402 5.38776 138.564 5.55576 138.78C5.73576 138.984 5.86176 139.236 5.93376 139.536C6.00576 139.824 6.04176 140.142 6.04176 140.49V142.146C6.02976 142.362 6.00576 142.572 5.96976 142.776C5.94576 142.98 5.89176 143.178 5.80776 143.37C5.72376 143.55 5.60976 143.712 5.46576 143.856C5.32176 144 5.12976 144.114 4.88976 144.198V144.216C5.15376 144.312 5.36376 144.438 5.51976 144.594C5.67576 144.75 5.78976 144.936 5.86176 145.152C5.94576 145.356 5.99376 145.584 6.00576 145.836C6.02976 146.088 6.04176 146.346 6.04176 146.61V148.464C6.04176 149.22 5.84376 149.814 5.44776 150.246C5.05176 150.666 4.46376 150.876 3.68376 150.876C3.01176 150.876 2.45976 150.684 2.02776 150.3C1.60776 149.904 1.39776 149.274 1.39776 148.41L2.17176 148.194C2.17176 148.794 2.27976 149.274 2.49576 149.634C2.72376 149.982 3.12576 150.156 3.70176 150.156C4.15776 150.156 4.53576 150.03 4.83576 149.778C5.13576 149.526 5.28576 149.094 5.28576 148.482V146.394C5.28576 145.722 5.14176 145.254 4.85376 144.99C4.57776 144.726 4.22376 144.594 3.79176 144.594H3.30576V143.856H3.82776C4.24776 143.856 4.59576 143.736 4.87176 143.496C5.14776 143.244 5.28576 142.8 5.28576 142.164V140.382C5.28576 139.938 5.16576 139.572 4.92576 139.284C4.68576 138.996 4.28976 138.852 3.73776 138.852C3.18576 138.852 2.78376 139.032 2.53176 139.392C2.29176 139.752 2.17176 140.208 2.17176 140.76C2.03976 140.736 1.90776 140.718 1.77576 140.706C1.65576 140.682 1.52976 140.658 1.39776 140.634C1.40976 139.878 1.61376 139.272 2.00976 138.816C2.40576 138.348 2.99976 138.114 3.79176 138.114ZM12.4055 148.698C12.4055 149.07 12.3395 149.394 12.2075 149.67C12.0875 149.934 11.9195 150.156 11.7035 150.336C11.4995 150.516 11.2535 150.654 10.9655 150.75C10.6895 150.834 10.3955 150.876 10.0835 150.876C9.77146 150.876 9.47146 150.834 9.18346 150.75C8.90746 150.654 8.66146 150.516 8.44546 150.336C8.24146 150.156 8.07346 149.934 7.94146 149.67C7.82146 149.394 7.76146 149.07 7.76146 148.698V140.292C7.76146 139.932 7.82146 139.62 7.94146 139.356C8.07346 139.08 8.24146 138.852 8.44546 138.672C8.66146 138.48 8.90746 138.342 9.18346 138.258C9.47146 138.162 9.77146 138.114 10.0835 138.114C10.4075 138.114 10.7075 138.162 10.9835 138.258C11.2715 138.342 11.5175 138.48 11.7215 138.672C11.9375 138.852 12.1055 139.08 12.2255 139.356C12.3455 139.62 12.4055 139.932 12.4055 140.292V148.698ZM11.6315 140.274C11.6315 139.83 11.4875 139.482 11.1995 139.23C10.9115 138.966 10.5395 138.834 10.0835 138.834C9.62746 138.834 9.24946 138.966 8.94946 139.23C8.66146 139.482 8.51746 139.83 8.51746 140.274V148.716C8.51746 149.16 8.66146 149.514 8.94946 149.778C9.24946 150.03 9.62746 150.156 10.0835 150.156C10.5395 150.156 10.9115 150.03 11.1995 149.778C11.4875 149.514 11.6315 149.16 11.6315 148.716V140.274ZM18.1752 148.572V150.732H17.4012V148.572H13.7112V147.87L16.3212 138.222H17.0952L14.4492 147.87H17.4012V144.36H18.1752V147.87H19.2012V148.572H18.1752Z" fill="white"/>
<path d="M5.48376 288.572V290.732H4.70976V288.572H1.01976V287.87L3.62976 278.222H4.40376L1.75776 287.87H4.70976V284.36H5.48376V287.87H6.50976V288.572H5.48376ZM10.1375 278.114C10.5695 278.114 10.9295 278.174 11.2175 278.294C11.5055 278.402 11.7335 278.564 11.9015 278.78C12.0815 278.984 12.2075 279.236 12.2795 279.536C12.3515 279.824 12.3875 280.142 12.3875 280.49V282.146C12.3755 282.362 12.3515 282.572 12.3155 282.776C12.2915 282.98 12.2375 283.178 12.1535 283.37C12.0695 283.55 11.9555 283.712 11.8115 283.856C11.6675 284 11.4755 284.114 11.2355 284.198V284.216C11.4995 284.312 11.7095 284.438 11.8655 284.594C12.0215 284.75 12.1355 284.936 12.2075 285.152C12.2915 285.356 12.3395 285.584 12.3515 285.836C12.3755 286.088 12.3875 286.346 12.3875 286.61V288.464C12.3875 289.22 12.1895 289.814 11.7935 290.246C11.3975 290.666 10.8095 290.876 10.0295 290.876C9.35746 290.876 8.80546 290.684 8.37346 290.3C7.95346 289.904 7.74346 289.274 7.74346 288.41L8.51746 288.194C8.51746 288.794 8.62546 289.274 8.84146 289.634C9.06946 289.982 9.47146 290.156 10.0475 290.156C10.5035 290.156 10.8815 290.03 11.1815 289.778C11.4815 289.526 11.6315 289.094 11.6315 288.482V286.394C11.6315 285.722 11.4875 285.254 11.1995 284.99C10.9235 284.726 10.5695 284.594 10.1375 284.594H9.65146V283.856H10.1735C10.5935 283.856 10.9415 283.736 11.2175 283.496C11.4935 283.244 11.6315 282.8 11.6315 282.164V280.382C11.6315 279.938 11.5115 279.572 11.2715 279.284C11.0315 278.996 10.6355 278.852 10.0835 278.852C9.53146 278.852 9.12946 279.032 8.87746 279.392C8.63746 279.752 8.51746 280.208 8.51746 280.76C8.38546 280.736 8.25346 280.718 8.12146 280.706C8.00146 280.682 7.87546 280.658 7.74346 280.634C7.75546 279.878 7.95946 279.272 8.35546 278.816C8.75146 278.348 9.34546 278.114 10.1375 278.114ZM18.7512 288.698C18.7512 289.07 18.6852 289.394 18.5532 289.67C18.4332 289.934 18.2652 290.156 18.0492 290.336C17.8452 290.516 17.5992 290.654 17.3112 290.75C17.0352 290.834 16.7412 290.876 16.4292 290.876C16.1172 290.876 15.8172 290.834 15.5292 290.75C15.2532 290.654 15.0072 290.516 14.7912 290.336C14.5872 290.156 14.4192 289.934 14.2872 289.67C14.1672 289.394 14.1072 289.07 14.1072 288.698V280.292C14.1072 279.932 14.1672 279.62 14.2872 279.356C14.4192 279.08 14.5872 278.852 14.7912 278.672C15.0072 278.48 15.2532 278.342 15.5292 278.258C15.8172 278.162 16.1172 278.114 16.4292 278.114C16.7532 278.114 17.0532 278.162 17.3292 278.258C17.6172 278.342 17.8632 278.48 18.0672 278.672C18.2832 278.852 18.4512 279.08 18.5712 279.356C18.6912 279.62 18.7512 279.932 18.7512 280.292V288.698ZM17.9772 280.274C17.9772 279.83 17.8332 279.482 17.5452 279.23C17.2572 278.966 16.8852 278.834 16.4292 278.834C15.9732 278.834 15.5952 278.966 15.2952 279.23C15.0072 279.482 14.8632 279.83 14.8632 280.274V288.716C14.8632 289.16 15.0072 289.514 15.2952 289.778C15.5952 290.03 15.9732 290.156 16.4292 290.156C16.8852 290.156 17.2572 290.03 17.5452 289.778C17.8332 289.514 17.9772 289.16 17.9772 288.716V280.274Z" fill="white"/>
<path d="M3.79176 166.114C4.22376 166.114 4.58376 166.174 4.87176 166.294C5.15976 166.402 5.38776 166.564 5.55576 166.78C5.73576 166.984 5.86176 167.236 5.93376 167.536C6.00576 167.824 6.04176 168.142 6.04176 168.49V170.146C6.02976 170.362 6.00576 170.572 5.96976 170.776C5.94576 170.98 5.89176 171.178 5.80776 171.37C5.72376 171.55 5.60976 171.712 5.46576 171.856C5.32176 172 5.12976 172.114 4.88976 172.198V172.216C5.15376 172.312 5.36376 172.438 5.51976 172.594C5.67576 172.75 5.78976 172.936 5.86176 173.152C5.94576 173.356 5.99376 173.584 6.00576 173.836C6.02976 174.088 6.04176 174.346 6.04176 174.61V176.464C6.04176 177.22 5.84376 177.814 5.44776 178.246C5.05176 178.666 4.46376 178.876 3.68376 178.876C3.01176 178.876 2.45976 178.684 2.02776 178.3C1.60776 177.904 1.39776 177.274 1.39776 176.41L2.17176 176.194C2.17176 176.794 2.27976 177.274 2.49576 177.634C2.72376 177.982 3.12576 178.156 3.70176 178.156C4.15776 178.156 4.53576 178.03 4.83576 177.778C5.13576 177.526 5.28576 177.094 5.28576 176.482V174.394C5.28576 173.722 5.14176 173.254 4.85376 172.99C4.57776 172.726 4.22376 172.594 3.79176 172.594H3.30576V171.856H3.82776C4.24776 171.856 4.59576 171.736 4.87176 171.496C5.14776 171.244 5.28576 170.8 5.28576 170.164V168.382C5.28576 167.938 5.16576 167.572 4.92576 167.284C4.68576 166.996 4.28976 166.852 3.73776 166.852C3.18576 166.852 2.78376 167.032 2.53176 167.392C2.29176 167.752 2.17176 168.208 2.17176 168.76C2.03976 168.736 1.90776 168.718 1.77576 168.706C1.65576 168.682 1.52976 168.658 1.39776 168.634C1.40976 167.878 1.61376 167.272 2.00976 166.816C2.40576 166.348 2.99976 166.114 3.79176 166.114ZM10.4075 178.732V167.068L8.48146 168.436V167.572L10.3715 166.222H11.1815V178.732H10.4075ZM18.7512 176.698C18.7512 177.07 18.6852 177.394 18.5532 177.67C18.4332 177.934 18.2652 178.156 18.0492 178.336C17.8452 178.516 17.5992 178.654 17.3112 178.75C17.0352 178.834 16.7412 178.876 16.4292 178.876C16.1172 178.876 15.8172 178.834 15.5292 178.75C15.2532 178.654 15.0072 178.516 14.7912 178.336C14.5872 178.156 14.4192 177.934 14.2872 177.67C14.1672 177.394 14.1072 177.07 14.1072 176.698V168.292C14.1072 167.932 14.1672 167.62 14.2872 167.356C14.4192 167.08 14.5872 166.852 14.7912 166.672C15.0072 166.48 15.2532 166.342 15.5292 166.258C15.8172 166.162 16.1172 166.114 16.4292 166.114C16.7532 166.114 17.0532 166.162 17.3292 166.258C17.6172 166.342 17.8632 166.48 18.0672 166.672C18.2832 166.852 18.4512 167.08 18.5712 167.356C18.6912 167.62 18.7512 167.932 18.7512 168.292V176.698ZM17.9772 168.274C17.9772 167.83 17.8332 167.482 17.5452 167.23C17.2572 166.966 16.8852 166.834 16.4292 166.834C15.9732 166.834 15.5952 166.966 15.2952 167.23C15.0072 167.482 14.8632 167.83 14.8632 168.274V176.716C14.8632 177.16 15.0072 177.514 15.2952 177.778C15.5952 178.03 15.9732 178.156 16.4292 178.156C16.8852 178.156 17.2572 178.03 17.5452 177.778C17.8332 177.514 17.9772 177.16 17.9772 176.716V168.274Z" fill="white"/>
<path d="M5.48376 316.572V318.732H4.70976V316.572H1.01976V315.87L3.62976 306.222H4.40376L1.75776 315.87H4.70976V312.36H5.48376V315.87H6.50976V316.572H5.48376ZM10.1375 306.114C10.5695 306.114 10.9295 306.174 11.2175 306.294C11.5055 306.402 11.7335 306.564 11.9015 306.78C12.0815 306.984 12.2075 307.236 12.2795 307.536C12.3515 307.824 12.3875 308.142 12.3875 308.49V310.146C12.3755 310.362 12.3515 310.572 12.3155 310.776C12.2915 310.98 12.2375 311.178 12.1535 311.37C12.0695 311.55 11.9555 311.712 11.8115 311.856C11.6675 312 11.4755 312.114 11.2355 312.198V312.216C11.4995 312.312 11.7095 312.438 11.8655 312.594C12.0215 312.75 12.1355 312.936 12.2075 313.152C12.2915 313.356 12.3395 313.584 12.3515 313.836C12.3755 314.088 12.3875 314.346 12.3875 314.61V316.464C12.3875 317.22 12.1895 317.814 11.7935 318.246C11.3975 318.666 10.8095 318.876 10.0295 318.876C9.35746 318.876 8.80546 318.684 8.37346 318.3C7.95346 317.904 7.74346 317.274 7.74346 316.41L8.51746 316.194C8.51746 316.794 8.62546 317.274 8.84146 317.634C9.06946 317.982 9.47146 318.156 10.0475 318.156C10.5035 318.156 10.8815 318.03 11.1815 317.778C11.4815 317.526 11.6315 317.094 11.6315 316.482V314.394C11.6315 313.722 11.4875 313.254 11.1995 312.99C10.9235 312.726 10.5695 312.594 10.1375 312.594H9.65146V311.856H10.1735C10.5935 311.856 10.9415 311.736 11.2175 311.496C11.4935 311.244 11.6315 310.8 11.6315 310.164V308.382C11.6315 307.938 11.5115 307.572 11.2715 307.284C11.0315 306.996 10.6355 306.852 10.0835 306.852C9.53146 306.852 9.12946 307.032 8.87746 307.392C8.63746 307.752 8.51746 308.208 8.51746 308.76C8.38546 308.736 8.25346 308.718 8.12146 308.706C8.00146 308.682 7.87546 308.658 7.74346 308.634C7.75546 307.878 7.95946 307.272 8.35546 306.816C8.75146 306.348 9.34546 306.114 10.1375 306.114ZM14.8632 311.154C14.8632 311.598 15.0072 311.946 15.2952 312.198C15.5832 312.45 15.9552 312.576 16.4112 312.576C16.6632 312.576 16.8852 312.528 17.0772 312.432C17.2812 312.324 17.4492 312.192 17.5812 312.036C17.7132 311.868 17.8092 311.682 17.8692 311.478C17.9412 311.262 17.9772 311.046 17.9772 310.83V308.238C17.9772 307.794 17.8332 307.446 17.5452 307.194C17.2572 306.942 16.8852 306.816 16.4292 306.816C15.9732 306.816 15.5952 306.942 15.2952 307.194C15.0072 307.446 14.8632 307.794 14.8632 308.238V311.154ZM17.4012 312.828C17.2692 312.96 17.0892 313.074 16.8612 313.17C16.6452 313.254 16.4292 313.296 16.2132 313.296C15.5652 313.296 15.0492 313.11 14.6652 312.738C14.2932 312.354 14.1072 311.82 14.1072 311.136V308.292C14.1072 307.92 14.1672 307.602 14.2872 307.338C14.4192 307.062 14.5872 306.834 14.7912 306.654C15.0072 306.474 15.2532 306.342 15.5292 306.258C15.8172 306.162 16.1172 306.114 16.4292 306.114C17.0892 306.114 17.6412 306.294 18.0852 306.654C18.5292 307.002 18.7512 307.548 18.7512 308.292V310.614C18.7512 311.01 18.7212 311.352 18.6612 311.64C18.6012 311.916 18.5292 312.174 18.4452 312.414L16.0152 318.75H15.2232C15.3072 318.546 15.4152 318.264 15.5472 317.904C15.6912 317.532 15.8412 317.13 15.9972 316.698C16.1652 316.266 16.3332 315.828 16.5012 315.384C16.6692 314.94 16.8192 314.538 16.9512 314.178C17.0952 313.806 17.2092 313.5 17.2932 313.26C17.3892 313.008 17.4432 312.87 17.4552 312.846L17.4012 312.828Z" fill="white"/>
<path d="M3.79176 194.114C4.22376 194.114 4.58376 194.174 4.87176 194.294C5.15976 194.402 5.38776 194.564 5.55576 194.78C5.73576 194.984 5.86176 195.236 5.93376 195.536C6.00576 195.824 6.04176 196.142 6.04176 196.49V198.146C6.02976 198.362 6.00576 198.572 5.96976 198.776C5.94576 198.98 5.89176 199.178 5.80776 199.37C5.72376 199.55 5.60976 199.712 5.46576 199.856C5.32176 200 5.12976 200.114 4.88976 200.198V200.216C5.15376 200.312 5.36376 200.438 5.51976 200.594C5.67576 200.75 5.78976 200.936 5.86176 201.152C5.94576 201.356 5.99376 201.584 6.00576 201.836C6.02976 202.088 6.04176 202.346 6.04176 202.61V204.464C6.04176 205.22 5.84376 205.814 5.44776 206.246C5.05176 206.666 4.46376 206.876 3.68376 206.876C3.01176 206.876 2.45976 206.684 2.02776 206.3C1.60776 205.904 1.39776 205.274 1.39776 204.41L2.17176 204.194C2.17176 204.794 2.27976 205.274 2.49576 205.634C2.72376 205.982 3.12576 206.156 3.70176 206.156C4.15776 206.156 4.53576 206.03 4.83576 205.778C5.13576 205.526 5.28576 205.094 5.28576 204.482V202.394C5.28576 201.722 5.14176 201.254 4.85376 200.99C4.57776 200.726 4.22376 200.594 3.79176 200.594H3.30576V199.856H3.82776C4.24776 199.856 4.59576 199.736 4.87176 199.496C5.14776 199.244 5.28576 198.8 5.28576 198.164V196.382C5.28576 195.938 5.16576 195.572 4.92576 195.284C4.68576 194.996 4.28976 194.852 3.73776 194.852C3.18576 194.852 2.78376 195.032 2.53176 195.392C2.29176 195.752 2.17176 196.208 2.17176 196.76C2.03976 196.736 1.90776 196.718 1.77576 196.706C1.65576 196.682 1.52976 196.658 1.39776 196.634C1.40976 195.878 1.61376 195.272 2.00976 194.816C2.40576 194.348 2.99976 194.114 3.79176 194.114ZM10.4075 206.732V195.068L8.48146 196.436V195.572L10.3715 194.222H11.1815V206.732H10.4075ZM17.9772 201.818C17.9772 201.374 17.8332 201.026 17.5452 200.774C17.2572 200.522 16.8852 200.396 16.4292 200.396C16.1772 200.396 15.9492 200.45 15.7452 200.558C15.5532 200.654 15.3912 200.786 15.2592 200.954C15.1272 201.11 15.0252 201.296 14.9532 201.512C14.8932 201.716 14.8632 201.926 14.8632 202.142V204.734C14.8632 205.178 15.0072 205.526 15.2952 205.778C15.5952 206.03 15.9732 206.156 16.4292 206.156C16.8852 206.156 17.2572 206.03 17.5452 205.778C17.8332 205.526 17.9772 205.178 17.9772 204.734V201.818ZM15.4392 200.144C15.5712 200.012 15.7452 199.904 15.9612 199.82C16.1892 199.724 16.4112 199.676 16.6272 199.676C17.2752 199.676 17.7912 199.868 18.1752 200.252C18.5592 200.624 18.7512 201.152 18.7512 201.836V204.68C18.7512 205.052 18.6852 205.376 18.5532 205.652C18.4332 205.916 18.2652 206.138 18.0492 206.318C17.8452 206.498 17.5992 206.636 17.3112 206.732C17.0352 206.816 16.7412 206.858 16.4292 206.858C16.1172 206.858 15.8172 206.816 15.5292 206.732C15.2532 206.636 15.0072 206.498 14.7912 206.318C14.5872 206.138 14.4192 205.916 14.2872 205.652C14.1672 205.376 14.1072 205.052 14.1072 204.68V202.358C14.1072 201.962 14.1312 201.626 14.1792 201.35C14.2392 201.062 14.3172 200.798 14.4132 200.558L16.8432 194.222H17.6172C17.5332 194.426 17.4192 194.714 17.2752 195.086C17.1432 195.446 16.9932 195.842 16.8252 196.274C16.6692 196.706 16.5072 197.144 16.3392 197.588C16.1712 198.032 16.0152 198.44 15.8712 198.812C15.7392 199.172 15.6252 199.478 15.5292 199.73C15.4452 199.97 15.3972 200.102 15.3852 200.126L15.4392 200.144Z" fill="white"/>
<path d="M3.79176 222.114C4.22376 222.114 4.58376 222.174 4.87176 222.294C5.15976 222.402 5.38776 222.564 5.55576 222.78C5.73576 222.984 5.86176 223.236 5.93376 223.536C6.00576 223.824 6.04176 224.142 6.04176 224.49V226.146C6.02976 226.362 6.00576 226.572 5.96976 226.776C5.94576 226.98 5.89176 227.178 5.80776 227.37C5.72376 227.55 5.60976 227.712 5.46576 227.856C5.32176 228 5.12976 228.114 4.88976 228.198V228.216C5.15376 228.312 5.36376 228.438 5.51976 228.594C5.67576 228.75 5.78976 228.936 5.86176 229.152C5.94576 229.356 5.99376 229.584 6.00576 229.836C6.02976 230.088 6.04176 230.346 6.04176 230.61V232.464C6.04176 233.22 5.84376 233.814 5.44776 234.246C5.05176 234.666 4.46376 234.876 3.68376 234.876C3.01176 234.876 2.45976 234.684 2.02776 234.3C1.60776 233.904 1.39776 233.274 1.39776 232.41L2.17176 232.194C2.17176 232.794 2.27976 233.274 2.49576 233.634C2.72376 233.982 3.12576 234.156 3.70176 234.156C4.15776 234.156 4.53576 234.03 4.83576 233.778C5.13576 233.526 5.28576 233.094 5.28576 232.482V230.394C5.28576 229.722 5.14176 229.254 4.85376 228.99C4.57776 228.726 4.22376 228.594 3.79176 228.594H3.30576V227.856H3.82776C4.24776 227.856 4.59576 227.736 4.87176 227.496C5.14776 227.244 5.28576 226.8 5.28576 226.164V224.382C5.28576 223.938 5.16576 223.572 4.92576 223.284C4.68576 222.996 4.28976 222.852 3.73776 222.852C3.18576 222.852 2.78376 223.032 2.53176 223.392C2.29176 223.752 2.17176 224.208 2.17176 224.76C2.03976 224.736 1.90776 224.718 1.77576 224.706C1.65576 224.682 1.52976 224.658 1.39776 224.634C1.40976 223.878 1.61376 223.272 2.00976 222.816C2.40576 222.348 2.99976 222.114 3.79176 222.114ZM10.1015 222.834C9.68146 222.834 9.30946 222.99 8.98546 223.302C8.67346 223.614 8.51746 224.142 8.51746 224.886L7.76146 224.76C7.78546 223.872 8.00146 223.212 8.40946 222.78C8.82946 222.336 9.40546 222.114 10.1375 222.114C10.9775 222.114 11.5775 222.36 11.9375 222.852C12.3095 223.332 12.4955 223.968 12.4955 224.76C12.4955 225.336 12.4415 225.834 12.3335 226.254C12.2255 226.674 12.0575 227.106 11.8295 227.55L8.60746 234.03H12.3875V234.75H7.76146V234.03L11.2175 227.082C11.4095 226.698 11.5355 226.32 11.5955 225.948C11.6555 225.576 11.6855 225.18 11.6855 224.76C11.6855 224.52 11.6615 224.286 11.6135 224.058C11.5775 223.818 11.4995 223.608 11.3795 223.428C11.2715 223.248 11.1155 223.104 10.9115 222.996C10.7075 222.888 10.4375 222.834 10.1015 222.834ZM16.7532 234.732V223.068L14.8272 224.436V223.572L16.7172 222.222H17.5272V234.732H16.7532Z" fill="white"/>
<rect x="209.219" y="144.017" width="0.934669" height="180.34" transform="rotate(90 209.219 144.017)" fill="#FA6510"/>
<rect x="209.826" y="146.507" width="0.934669" height="180.947" transform="rotate(90 209.826 146.507)" fill="#8E1309"/>
<rect x="199.503" y="116.003" width="0.934669" height="170.625" transform="rotate(90 199.503 116.003)" fill="#FA6510"/>
<rect x="195.253" y="118.493" width="0.934669" height="166.374" transform="rotate(90 195.253 118.493)" fill="#8E1309"/>
<rect x="159.428" y="171.72" width="0.934669" height="130.549" transform="rotate(90 159.428 171.72)" fill="#FA6510"/>
<rect x="137.568" y="174.21" width="0.934669" height="108.69" transform="rotate(90 137.568 174.21)" fill="#8E1309"/>
<rect x="167.321" y="199.734" width="0.934669" height="138.443" transform="rotate(90 167.321 199.734)" fill="#FA6510"/>
<rect x="164.285" y="202.224" width="0.934669" height="135.407" transform="rotate(90 164.285 202.224)" fill="#8E1309"/>
<rect x="230.471" y="283.153" width="0.934669" height="201.592" transform="rotate(90 230.471 283.153)" fill="#FA6510"/>
<rect x="266.903" y="285.643" width="0.934669" height="238.025" transform="rotate(90 266.903 285.643)" fill="#8E1309"/>
<rect x="223.185" y="310.856" width="0.934669" height="194.306" transform="rotate(90 223.185 310.856)" fill="#FA6510"/>
<rect x="255.366" y="313.346" width="0.934669" height="226.488" transform="rotate(90 255.366 313.346)" fill="#8E1309"/>
<rect x="216.505" y="227.436" width="0.934669" height="187.627" transform="rotate(90 216.505 227.436)" fill="#FA6510"/>
<rect x="186.145" y="229.927" width="0.934669" height="157.266" transform="rotate(90 186.145 229.927)" fill="#8E1309"/>
<rect x="258.402" y="255.45" width="0.934669" height="229.524" transform="rotate(90 258.402 255.45)" fill="#FA6510"/>
<rect x="269.332" y="257.941" width="0.934669" height="240.454" transform="rotate(90 269.332 257.941)" fill="#8E1309"/>
<rect x="216.505" y="88.3005" width="0.934669" height="187.627" transform="rotate(90 216.505 88.3005)" fill="#FA6510"/>
<rect x="214.076" y="90.7906" width="0.934669" height="185.198" transform="rotate(90 214.076 90.7906)" fill="#8E1309"/>
<rect x="230.471" y="60.2866" width="0.934669" height="201.592" transform="rotate(90 230.471 60.2866)" fill="#FA6510"/>
<rect x="228.042" y="62.7768" width="0.934669" height="199.164" transform="rotate(90 228.042 62.7768)" fill="#8E1309"/>
<path opacity="0.201893" d="M16.1553 25.1442L275.844 25.1442" stroke="white"/>
<path fill-rule="evenodd" clip-rule="evenodd" d="M71.0027 1.75599L73.6914 1.74631L73.6889 1.04682L67.5137 1.06903L67.5162 1.76853L70.2049 1.75886L70.2299 8.7101L71.0277 8.70723L71.0027 1.75599ZM75.2236 8.36941C75.669 8.61919 76.1685 8.74309 76.7223 8.74109C77.2761 8.7391 77.7747 8.61162 78.2183 8.35863C78.6619 8.10565 79.0085 7.75648 79.2583 7.3111C79.5081 6.86572 79.632 6.36251 79.63 5.80145C79.628 5.2404 79.5005 4.73809 79.2475 4.29452C78.9945 3.85095 78.6453 3.5061 78.2 3.25996C77.7546 3.01382 77.255 2.89175 76.7013 2.89374C76.1475 2.89573 75.6488 3.02139 75.2052 3.27073C74.7617 3.52007 74.4132 3.86743 74.1597 4.31282C73.9063 4.75821 73.7806 5.26143 73.7826 5.82249C73.7846 6.38354 73.914 6.88584 74.1706 7.3294C74.4272 7.77296 74.7782 8.11962 75.2236 8.36941ZM76.7198 8.05265C77.1279 8.05119 77.4937 7.95697 77.8173 7.77C78.1408 7.58303 78.3931 7.31799 78.574 6.97487C78.755 6.63175 78.8446 6.2416 78.8431 5.80441C78.8415 5.36722 78.749 4.97773 78.5656 4.63592C78.3822 4.29412 78.1281 4.0309 77.8032 3.84626C77.4782 3.66162 77.1118 3.57004 76.7037 3.5715C76.2957 3.57297 75.9299 3.66719 75.6063 3.85416C75.2827 4.04113 75.0286 4.30618 74.8441 4.64931C74.6595 4.99244 74.568 5.3826 74.5696 5.81978C74.5711 6.25697 74.6654 6.64646 74.8525 6.98825C75.0395 7.33005 75.2955 7.59326 75.6204 7.7779C75.9453 7.96254 76.3118 8.05412 76.7198 8.05265ZM85.6406 8.65452L85.62 2.90554L84.844 2.90833L84.8538 5.64074C84.1845 5.92732 83.5802 6.07158 83.041 6.07352C82.5528 6.07527 82.1699 5.96553 81.8922 5.74429C81.6145 5.52305 81.4749 5.19749 81.4733 4.76758L81.4667 2.92048L80.6907 2.92327L80.6975 4.81409C80.6998 5.44802 80.8946 5.92276 81.2819 6.23833C81.6692 6.5539 82.209 6.71044 82.9012 6.70795C83.5424 6.70564 84.194 6.55757 84.856 6.26373L84.8646 8.65732L85.6406 8.65452ZM92.8666 5.99429L88.0576 6.01159C88.1034 6.60892 88.3347 7.09082 88.7514 7.45729C89.168 7.82376 89.6933 8.00586 90.3272 8.00358C90.6842 8.00229 91.0119 7.93736 91.3102 7.80877C91.6085 7.68018 91.8665 7.49163 92.0842 7.2431L92.5232 7.74429C92.2692 8.05124 91.9513 8.28555 91.5693 8.44723C91.1874 8.60891 90.7669 8.69057 90.3078 8.69222C89.7176 8.69435 89.1944 8.57054 88.7381 8.32079C88.2818 8.07105 87.9253 7.7244 87.6687 7.28085C87.412 6.83729 87.2827 6.33499 87.2807 5.77393C87.2787 5.21287 87.3989 4.70968 87.6414 4.26432C87.8839 3.81897 88.2179 3.47167 88.6432 3.22239C89.0686 2.97312 89.5472 2.84753 90.0791 2.84561C90.611 2.8437 91.0887 2.96585 91.5123 3.21207C91.9358 3.45829 92.2685 3.80138 92.5106 4.24134C92.7526 4.68131 92.8746 5.18546 92.8767 5.7538L92.8666 5.99429ZM88.6899 4.04781C89.0639 3.69306 89.5277 3.5147 90.0815 3.51271C90.6426 3.51069 91.1113 3.6857 91.4879 4.03774C91.8644 4.38979 92.0792 4.84988 92.1322 5.41804L88.0555 5.43271C88.1044 4.86418 88.3159 4.40255 88.6899 4.04781ZM98.9213 2.85769L98.942 8.60668L98.166 8.60947L98.1574 6.21588C97.4954 6.50972 96.8438 6.65779 96.2026 6.6601C95.5104 6.66259 94.9706 6.50605 94.5833 6.19048C94.1959 5.87491 94.0011 5.40017 93.9989 4.76625L93.9921 2.87542L94.7681 2.87263L94.7747 4.71974C94.7763 5.14964 94.9159 5.4752 95.1936 5.69644C95.4712 5.91769 95.8542 6.02743 96.3424 6.02567C96.8816 6.02373 97.4858 5.87947 98.1552 5.59289L98.1453 2.86048L98.9213 2.85769ZM101.905 2.84695L101.129 2.84975L101.15 8.59873L101.926 8.59594L101.917 6.06027L105.534 6.04725L105.544 8.58293L106.32 8.58014L106.299 2.83115L105.523 2.83394L105.532 5.38055L101.914 5.39356L101.905 2.84695ZM110.485 2.77221C111.235 2.76951 111.812 2.95506 112.214 3.32888C112.616 3.70269 112.818 4.25755 112.821 4.99348L112.834 8.55654L112.09 8.55922L112.087 7.66299C111.913 7.96236 111.657 8.19645 111.319 8.36526C110.981 8.53406 110.579 8.6193 110.112 8.62098C109.471 8.62329 108.961 8.47211 108.581 8.16744C108.201 7.86277 108.01 7.45906 108.008 6.9563C108.006 6.4681 108.181 6.074 108.534 5.77399C108.886 5.47397 109.448 5.32258 110.221 5.3198L112.046 5.31323L112.045 4.96348C112.043 4.46801 111.903 4.09143 111.625 3.83376C111.347 3.57609 110.943 3.44821 110.411 3.45012C110.046 3.45143 109.697 3.5128 109.362 3.63424C109.027 3.75567 108.74 3.92247 108.5 4.13464L108.149 3.55663C108.439 3.30784 108.788 3.11532 109.196 2.97905C109.603 2.84278 110.033 2.77384 110.485 2.77221ZM111.355 7.70414C111.042 7.90565 110.668 8.00718 110.23 8.00876C109.771 8.01041 109.414 7.91515 109.158 7.72297C108.902 7.5308 108.774 7.26713 108.773 6.93195C108.77 6.24702 109.261 5.9028 110.245 5.89926L112.048 5.89277L112.051 6.83272C111.9 7.21217 111.668 7.50264 111.355 7.70414ZM119.294 2.7844L119.315 8.53339L118.604 8.53595L118.598 6.63419L116.576 6.64146L115.249 8.54802L114.407 8.55104L115.832 6.53484C115.387 6.41257 115.044 6.2025 114.802 5.90462C114.561 5.60674 114.439 5.22828 114.438 4.76923C114.435 4.12802 114.652 3.63905 115.088 3.3023C115.524 2.96555 116.121 2.79582 116.879 2.79309L119.294 2.7844ZM116.858 6.06104C115.772 6.06495 115.228 5.64065 115.225 4.78813C115.221 3.92104 115.781 3.48549 116.903 3.48145L118.586 3.4754L118.596 6.05479L116.858 6.06104Z" fill="white"/>
<rect x="49.1924" y="5.14227" width="12.1441" height="1.21441" transform="rotate(-0.206102 49.1924 5.14227)" fill="#FA6510"/>
<path fill-rule="evenodd" clip-rule="evenodd" d="M207.747 5.36966C207.75 6.2659 207.458 6.97009 206.869 7.48227C206.281 7.99444 205.448 8.27433 204.369 8.32192L204.377 10.3876L203.623 10.3903L203.615 8.33557C202.544 8.2957 201.714 8.01998 201.126 7.50839C200.537 6.99681 200.241 6.29291 200.238 5.39667C200.235 4.50773 200.526 3.81082 201.111 3.30595C201.695 2.80107 202.523 2.52485 203.594 2.47728L203.586 0.160199L204.34 0.157486L204.348 2.47457C205.427 2.52169 206.262 2.79557 206.854 3.29622C207.446 3.79686 207.744 4.488 207.747 5.36966ZM171.431 6.34181L167.168 6.35714L166.257 8.40429L165.416 8.40731L168.886 0.743987L169.684 0.741117L173.209 8.37928L172.356 8.38235L171.431 6.34181ZM171.133 5.68694L169.282 1.584L167.461 5.70015L171.133 5.68694ZM175.857 3.30917L178.032 3.30134L178.03 2.61278L172.904 2.63122L172.906 3.31978L175.081 3.31196L175.1 8.37238L175.876 8.36959L175.857 3.30917ZM185.582 2.58561L185.603 8.3346L184.892 8.33715L184.876 3.79042L182.562 7.64603L182.212 7.64729L179.87 3.7975L179.887 8.35516L179.176 8.35771L179.156 2.60873L179.943 2.6059L182.395 6.73946L184.861 2.5882L185.582 2.58561ZM188.684 8.00152C189.129 8.2513 189.629 8.3752 190.183 8.3732C190.736 8.37121 191.235 8.24373 191.679 7.99074C192.122 7.73776 192.469 7.38859 192.719 6.94321C192.968 6.49783 193.092 5.99462 193.09 5.43356C193.088 4.87251 192.961 4.3702 192.708 3.92663C192.455 3.48306 192.106 3.13821 191.66 2.89207C191.215 2.64593 190.715 2.52386 190.162 2.52585C189.608 2.52784 189.109 2.6535 188.666 2.90284C188.222 3.15218 187.873 3.49954 187.62 3.94493C187.367 4.39032 187.241 4.89354 187.243 5.4546C187.245 6.01565 187.374 6.51795 187.631 6.96151C187.888 7.40507 188.239 7.75173 188.684 8.00152ZM190.18 7.68417C190.588 7.6827 190.954 7.58848 191.278 7.40151C191.601 7.21454 191.853 6.9495 192.034 6.60638C192.215 6.26326 192.305 5.87312 192.303 5.43593C192.302 4.99874 192.209 4.60925 192.026 4.26744C191.843 3.92563 191.588 3.66241 191.263 3.47777C190.939 3.29314 190.572 3.20155 190.164 3.20302C189.756 3.20449 189.39 3.29871 189.067 3.48568C188.743 3.67265 188.489 3.9377 188.304 4.28083C188.12 4.62396 188.028 5.01411 188.03 5.4513C188.031 5.88849 188.126 6.27797 188.313 6.61977C188.5 6.96157 188.756 7.22478 189.081 7.40942C189.406 7.59405 189.772 7.68564 190.18 7.68417ZM195.641 7.98196C196.09 8.22808 196.598 8.35012 197.167 8.34808C197.655 8.34632 198.095 8.24819 198.488 8.05369C198.881 7.85918 199.19 7.57572 199.414 7.2033L198.833 6.81192C198.645 7.09677 198.405 7.30894 198.114 7.44843C197.823 7.58792 197.507 7.65828 197.164 7.65951C196.749 7.66101 196.375 7.56945 196.043 7.38484C195.711 7.20022 195.451 6.93885 195.264 6.60069C195.077 6.26254 194.983 5.87124 194.981 5.42676C194.98 4.98957 195.071 4.59942 195.256 4.25629C195.44 3.91316 195.698 3.6481 196.029 3.4611C196.36 3.2741 196.733 3.17986 197.148 3.17836C197.491 3.17713 197.808 3.24703 198.1 3.38807C198.392 3.52911 198.633 3.74137 198.823 4.02486L199.401 3.62931C199.174 3.25851 198.865 2.97727 198.475 2.78558C198.084 2.59389 197.641 2.49894 197.146 2.50072C196.577 2.50277 196.07 2.62847 195.622 2.87782C195.175 3.12717 194.825 3.47453 194.571 3.91993C194.318 4.36532 194.192 4.86853 194.194 5.42959C194.196 5.99065 194.326 6.49477 194.582 6.94197C194.839 7.38917 195.192 7.73583 195.641 7.98196ZM201.67 6.99832C201.228 6.61372 201.006 6.07897 201.003 5.39404C201.001 4.72369 201.221 4.19645 201.664 3.81231C202.107 3.42817 202.752 3.21273 203.597 3.16597L203.613 7.64712C202.76 7.59918 202.113 7.38291 201.67 6.99832ZM204.367 7.6444C205.219 7.59762 205.869 7.38033 206.315 6.99254C206.762 6.60474 206.984 6.06475 206.982 5.37253C206.979 4.69489 206.753 4.16744 206.304 3.79016C205.854 3.41287 205.203 3.20391 204.351 3.16325L204.367 7.6444ZM209.606 5.61461L214.415 5.59731L214.425 5.35682C214.423 4.78847 214.301 4.28433 214.059 3.84436C213.817 3.40439 213.484 3.06131 213.061 2.81509C212.637 2.56887 212.159 2.44672 211.627 2.44863C211.096 2.45054 210.617 2.57613 210.192 2.82541C209.766 3.07468 209.432 3.42199 209.19 3.86734C208.947 4.31269 208.827 4.81589 208.829 5.37695C208.831 5.938 208.96 6.4403 209.217 6.88386C209.474 7.32742 209.83 7.67406 210.286 7.92381C210.743 8.17355 211.266 8.29736 211.856 8.29524C212.315 8.29359 212.736 8.21192 213.118 8.05025C213.5 7.88857 213.818 7.65426 214.071 7.34731L213.632 6.84612C213.415 7.09464 213.157 7.2832 212.858 7.41179C212.56 7.54037 212.233 7.60531 211.876 7.60659C211.242 7.60887 210.716 7.42678 210.3 7.06031C209.883 6.69384 209.652 6.21194 209.606 5.61461ZM211.63 3.11513C211.076 3.11712 210.612 3.29549 210.238 3.65023C209.864 4.00497 209.653 4.4666 209.604 5.03513L213.681 5.02046C213.627 4.4523 213.413 3.99221 213.036 3.64016C212.66 3.28812 212.191 3.11311 211.63 3.11513ZM220.558 2.78265C220.12 2.54013 219.632 2.41984 219.092 2.42178C218.611 2.42351 218.18 2.52707 217.798 2.73247C217.417 2.93786 217.11 3.23042 216.878 3.61016L216.874 2.47348L216.131 2.47615L216.159 10.3455L216.935 10.3427L216.923 7.14031C217.165 7.51106 217.474 7.7923 217.85 7.98404C218.226 8.17578 218.647 8.27081 219.113 8.26913C219.66 8.26717 220.149 8.14336 220.582 7.8977C221.015 7.65205 221.354 7.30654 221.6 6.86118C221.846 6.41581 221.969 5.90532 221.966 5.32969C221.964 4.76135 221.839 4.25539 221.589 3.81181C221.34 3.36822 220.996 3.02518 220.558 2.78265ZM219.056 7.5803C219.457 7.57886 219.821 7.48464 220.148 7.29766C220.475 7.11068 220.731 6.84562 220.916 6.50249C221.101 6.15936 221.192 5.7692 221.19 5.33202C221.189 4.89483 221.095 4.50716 220.908 4.16901C220.721 3.83086 220.463 3.56765 220.134 3.37939C219.806 3.19112 219.441 3.0977 219.04 3.09915C218.632 3.10061 218.266 3.19665 217.943 3.38727C217.619 3.57788 217.365 3.84293 217.181 4.18242C216.996 4.52191 216.904 4.91024 216.906 5.34743C216.908 5.78462 217.002 6.1741 217.189 6.5159C217.376 6.85769 217.632 7.1209 217.957 7.30554C218.282 7.49018 218.648 7.58177 219.056 7.5803ZM224.404 2.44596L223.628 2.44875L223.649 8.19774L224.425 8.19494L224.416 5.65927L228.034 5.64626L228.043 8.18193L228.819 8.17914L228.798 2.43015L228.022 2.43294L228.031 4.97955L224.414 4.99256L224.404 2.44596ZM232.984 2.37181C233.734 2.36911 234.311 2.55466 234.713 2.92847C235.115 3.30228 235.317 3.85715 235.32 4.59308L235.333 8.15614L234.59 8.15881L234.586 7.26258C234.413 7.56196 234.157 7.79604 233.818 7.96485C233.48 8.13366 233.078 8.2189 232.611 8.22058C231.97 8.22288 231.46 8.0717 231.08 7.76704C230.7 7.46237 230.509 7.05866 230.507 6.55589C230.505 6.0677 230.681 5.6736 231.033 5.37358C231.385 5.07357 231.947 4.92217 232.72 4.91939L234.545 4.91283L234.544 4.56308C234.542 4.0676 234.402 3.69103 234.124 3.43336C233.847 3.17568 233.442 3.04781 232.91 3.04972C232.546 3.05103 232.196 3.1124 231.861 3.23383C231.527 3.35526 231.239 3.52206 231 3.73424L230.648 3.15622C230.938 2.90744 231.287 2.71491 231.695 2.57864C232.103 2.44238 232.532 2.37343 232.984 2.37181ZM233.854 7.30314C233.542 7.50465 233.167 7.60618 232.73 7.60776C232.27 7.60941 231.913 7.51415 231.657 7.32197C231.402 7.1298 231.273 6.86613 231.272 6.53095C231.27 5.84603 231.76 5.5018 232.744 5.49826L234.547 5.49177L234.551 6.43172C234.399 6.81117 234.167 7.10164 233.854 7.30314ZM241.793 2.3834L241.814 8.13239L241.104 8.13495L241.097 6.23319L239.075 6.24046L237.748 8.14702L236.907 8.15005L238.331 6.13384C237.886 6.01157 237.543 5.8015 237.302 5.50362C237.06 5.20574 236.938 4.82728 236.937 4.36823C236.934 3.72703 237.151 3.23805 237.587 2.9013C238.023 2.56455 238.62 2.39482 239.378 2.39209L241.793 2.3834ZM239.357 5.66064C238.271 5.66454 237.727 5.24024 237.724 4.38773C237.721 3.52064 238.28 3.08508 239.402 3.08105L241.085 3.07499L241.095 5.65439L239.357 5.66064Z" fill="white"/>
<rect x="147.022" y="4.83057" width="12.1441" height="1.21441" transform="rotate(-0.206102 147.022 4.83057)" fill="#8E1309"/>
</svg>
