<?xml version="1.0" encoding="utf-8"?>
<!-- Generator: Adobe Illustrator 24.0.0, SVG Export Plug-In . SVG Version: 6.00 Build 0)  -->
<svg version="1.1" id="Layer_1" xmlns="http://www.w3.org/2000/svg" xmlns:xlink="http://www.w3.org/1999/xlink" x="0px" y="0px"
	 viewBox="0 0 78.2 86.5" style="enable-background:new 0 0 78.2 86.5;" xml:space="preserve">
<style type="text/css">
	.st0{fill:none;stroke:#111212;}
	.st1{fill:none;stroke:#111212;stroke-width:0.5;}
	.st2{fill:none;stroke:#111212;stroke-width:0.5;stroke-dasharray:1,1;}
	.st3{fill:none;stroke:#111212;stroke-width:1.1;}
</style>
<title>icons/main/delivery 3</title>
<desc>Created with Sketch.</desc>
<g id="icons_x2F_main_x2F_delivery-3">
	<g id="Group-26" transform="translate(0.000000, 13.000000)">
		<g id="Group-5" transform="translate(0.000000, 4.860730)">
			<polyline id="Stroke-1" class="st0" points="68.5,-12.5 77.7,-12.5 77.7,68.2 0.5,68.2 0.5,-12.5 9.5,-12.5 			"/>
			<path id="Stroke-3" class="st0" d="M0.5,9.3h77.2"/>
		</g>
		<polygon id="Stroke-6" class="st1" points="68.4,60.5 9.6,60.5 9.6,26.1 68.5,26.1 68.5,60.5 		"/>
		<path id="Stroke-7" class="st1" d="M23.8,26.1v34.4"/>
		<path id="Stroke-8" class="st1" d="M39,26.1v34.4"/>
		<path id="Stroke-9" class="st1" d="M54.3,26.1v34.4"/>
		<path id="Stroke-10" class="st1" d="M68.4,37.5H9.6"/>
		<path id="Stroke-11" class="st1" d="M68.4,49.1H9.7"/>
		<path id="Stroke-12" class="st2" d="M9.6,7.2h58.9"/>
		<g id="Group-19" transform="translate(8.863636, 0.428911)">
			<polygon id="Stroke-13" class="st0" points="0.7,-3.2 4.4,-3.2 4.4,-12.9 0.7,-12.9 			"/>
			<polygon id="Stroke-15" class="st0" points="55.8,-3.2 59.5,-3.2 59.5,-12.9 55.8,-12.9 			"/>
			<polygon id="Stroke-16" class="st0" points="42.1,-3.2 45.8,-3.2 45.8,-12.9 42.1,-12.9 			"/>
			<polygon id="Stroke-17" class="st0" points="28.3,-3.2 32,-3.2 32,-12.9 28.3,-12.9 			"/>
			<polygon id="Stroke-18" class="st0" points="14.5,-3.2 18.2,-3.2 18.2,-12.9 14.5,-12.9 			"/>
		</g>
		<path id="Stroke-20" class="st0" d="M13.6-7.6h9.8"/>
		<path id="Stroke-21" class="st0" d="M27.1-7.6h10.1"/>
		<path id="Stroke-22" class="st0" d="M40.9-7.6h10.1"/>
		<path id="Stroke-23" class="st0" d="M54.6-7.6h10.1"/>
		<path id="Stroke-24" class="st3" d="M57.5,50.6l8.7,8.7"/>
		<path id="Stroke-25" class="st3" d="M66.2,50.6l-8.7,8.7"/>
	</g>
</g>
</svg>
