<?xml version="1.0" encoding="utf-8"?>
<!-- Generator: Adobe Illustrator 24.1.2, SVG Export Plug-In . SVG Version: 6.00 Build 0)  -->
<svg version="1.1" id="Layer_1" xmlns="http://www.w3.org/2000/svg" xmlns:xlink="http://www.w3.org/1999/xlink" x="0px" y="0px"
	 viewBox="0 0 161.4 142.7" style="enable-background:new 0 0 161.4 142.7;" xml:space="preserve">
<style type="text/css">
	.st0{fill:none;stroke:#010204;}
	.st1{fill:none;stroke:#010204;stroke-width:0.5;}
	.st2{fill:none;stroke:#010204;stroke-width:0.5;stroke-dasharray:1,1.5;}
</style>
<desc>Created with Sketch.</desc>
<g id="icons_x2F_main_x2F_quality-expert-1">
	<g id="Group-77" transform="translate(0.000000, 27.000000)">
		<path id="Stroke-1" class="st0" d="M116.5-12.9c0,7.4-6,13.4-13.4,13.4c-7.4,0-13.4-6-13.4-13.4s6-13.4,13.4-13.4
			C110.5-26.4,116.5-20.4,116.5-12.9z"/>
		<path id="Stroke-3" class="st0" d="M27.4-13.1c0,7.4-6,13.4-13.4,13.4S0.5-5.6,0.5-13.1s6-13.4,13.4-13.4S27.4-20.5,27.4-13.1z"/>
		<path id="Stroke-5" class="st0" d="M116.5,72.2c0,7.4-6,13.4-13.4,13.4c-7.4,0-13.4-6-13.4-13.4s6-13.4,13.4-13.4
			C110.5,58.8,116.5,64.8,116.5,72.2z"/>
		<path id="Stroke-7" class="st0" d="M27.4,72.1c0,7.4-6,13.4-13.4,13.4s-13.4-6-13.4-13.4c0-7.4,6-13.4,13.4-13.4
			S27.4,64.7,27.4,72.1z"/>
		<path id="Stroke-9" class="st0" d="M160.8,15.8c0,7.4-6,13.4-13.4,13.4c-7.4,0-13.4-6-13.4-13.4s6-13.4,13.4-13.4
			C154.8,2.4,160.8,8.4,160.8,15.8z"/>
		<path id="Stroke-11" class="st0" d="M94.4,44.4c0,7.4-6,13.4-13.4,13.4s-13.4-6-13.4-13.4S73.6,31,81,31S94.4,37,94.4,44.4z"/>
		<path id="Stroke-13" class="st0" d="M71.9,15.7c0,7.4-6,13.4-13.4,13.4c-7.4,0-13.4-6-13.4-13.4s6-13.4,13.4-13.4
			C65.9,2.3,71.9,8.3,71.9,15.7z"/>
		<path id="Stroke-15" class="st0" d="M160.9,101.8c0,7.4-6,13.4-13.4,13.4s-13.4-6-13.4-13.4c0-7.4,6-13.4,13.4-13.4
			S160.9,94.4,160.9,101.8z"/>
		<path id="Stroke-17" class="st0" d="M71.8,101.8c0,7.4-6,13.4-13.4,13.4s-13.4-6-13.4-13.4c0-7.4,6-13.4,13.4-13.4
			S71.8,94.4,71.8,101.8z"/>
		<path id="Stroke-19" class="st0" d="M147.6,88.3V29.2"/>
		<path id="Stroke-21" class="st0" d="M71.6,102.2H134"/>
		<path id="Stroke-23" class="st0" d="M59,29.1v59.1"/>
		<path id="Stroke-25" class="st0" d="M133.9,15.5H72.1"/>
		<path id="Stroke-27" class="st1" d="M103.1,58.7V0.4"/>
		<path id="Stroke-29" class="st0" d="M27.5,72.7h62.3"/>
		<path id="Stroke-31" class="st0" d="M13.8,0.2v58.3"/>
		<path id="Stroke-33" class="st0" d="M89.6-13H27.4"/>
		<path id="Stroke-35" class="st2" d="M93.2,38.8L134.8,21"/>
		<path id="Stroke-37" class="st2" d="M26.7,67.2l41.8-17.9"/>
		<path id="Stroke-39" class="st0" d="M47.1,94.5L24.9,79.9"/>
		<path id="Stroke-41" class="st2" d="M76.3,57.1L63.8,89.5"/>
		<path id="Stroke-43" class="st2" d="M98.3-0.5L85.9,31.8"/>
		<path id="Stroke-45" class="st0" d="M136.3,8.3L114.5-5.7"/>
		<path id="Stroke-47" class="st1" d="M136,94.5l-22-14.6"/>
		<path id="Stroke-49" class="st2" d="M116.2,75.1l21,18.1"/>
		<path id="Stroke-51" class="st2" d="M91,53.5l7.3,6.2"/>
		<path id="Stroke-53" class="st2" d="M62.2,28.6l8.4,7.2"/>
		<path id="Stroke-55" class="st2" d="M24-4.3l21.4,18.4"/>
		<path id="Stroke-57" class="st1" d="M47.4,8.2l-22.1-14"/>
		<path id="Stroke-59" class="st0" d="M146.5,5.6c0.6,0,6.7,0,10.1,6.1"/>
		<path id="Stroke-61" class="st0" d="M102.8-23.4c0.6,0,6.7,0,10.1,6.1"/>
		<path id="Stroke-63" class="st0" d="M57.8,5.1c0.6,0,6.7,0,10.1,6.1"/>
		<path id="Stroke-65" class="st0" d="M80.1,34.1c0.6,0,6.7,0,10.1,6.1"/>
		<path id="Stroke-67" class="st0" d="M102.4,62.1c0.6,0,6.7,0,10.1,6.1"/>
		<path id="Stroke-69" class="st0" d="M146.5,91.5c0.6,0,6.7,0,10.1,6.1"/>
		<path id="Stroke-71" class="st0" d="M13.2-23.2c0.6,0,6.7,0,10.1,6.1"/>
		<path id="Stroke-73" class="st0" d="M13.2,61.9c0.6,0,6.7,0,10.1,6.1"/>
		<path id="Stroke-75" class="st0" d="M57.4,91.1c0.6,0,6.7,0,10.1,6.1"/>
	</g>
</g>
</svg>
